<svg xmlns="http://www.w3.org/2000/svg" width="300" height="51" viewBox="0 0 300 51">
  <g fill="#232020" fill-rule="evenodd">
    <path d="M16.2171662 20.7277929C16.2171662 22.813079 14.5160763 24.5583106 12.3449591 24.5583106 10.173842 24.5583106 8.42942779 22.813079 8.42942779 20.7277929 8.42942779 18.5558583 10.173842 16.853951 12.3449591 16.853951 14.5160763 16.853951 16.2171662 18.5558583 16.2171662 20.7277929M25.4959128 4.12970027C25.4959128 8.38610354 25.0283379 8.72615804 20.9002725 8.72615804 18.7291553 8.72615804 16.9839237 10.4297003 16.9839237 12.5983651 16.9839237 14.7694823 18.7291553 16.4280654 20.9002725 16.4280654 22.9847411 16.4280654 24.6874659 14.7694823 24.6874659 12.5983651 24.6874659 8.38610354 25.0283379 8.04523161 29.2839237 8.04523161 31.4542234 8.04523161 33.1569482 6.3 33.1569482 4.12970027 33.1569482 1.95858311 31.4542234.257493188 29.2839237.257493188 27.1986376.257493188 25.4959128 1.95858311 25.4959128 4.12970027M33.7095368 38.006812C33.7095368 42.2632153 33.4119891 42.6032698 29.1138965 42.6032698 26.9435967 42.6032698 25.2833787 44.3485014 25.2833787 46.4337875 25.2833787 48.5632153 26.9435967 50.3076294 29.1138965 50.3076294 31.2841962 50.3076294 32.986921 48.5632153 32.986921 46.4337875 32.986921 42.2632153 33.3269755 41.8373297 37.5833787 41.8373297 39.7536785 41.8373297 41.4555858 40.0920981 41.4555858 38.006812 41.4555858 35.8790191 39.7536785 34.13297 37.5833787 34.13297 35.413079 34.13297 33.7095368 35.8790191 33.7095368 38.006812M33.7095368 21.0702997C33.7095368 25.3234332 33.3269755 25.6651226 29.1138965 25.6651226 26.9435967 25.6651226 25.2833787 27.4095368 25.2833787 29.5365123 25.2833787 31.7092643 26.9435967 33.4544959 29.1138965 33.4544959 31.2841962 33.4544959 32.986921 31.7092643 32.986921 29.5365123 32.986921 25.3234332 33.3269755 24.9825613 37.5833787 24.9825613 39.7536785 24.9825613 41.4555858 23.239782 41.4555858 21.0702997 41.4555858 19.026703 39.7536785 17.280654 37.5833787 17.280654 35.413079 17.280654 33.7095368 19.026703 33.7095368 21.0702997M16.813079 46.4346049C16.813079 48.5623978 18.5583106 50.3084469 20.7294278 50.3084469 22.8147139 50.3084469 24.5174387 48.5623978 24.5174387 46.4346049 24.5174387 44.3493188 22.8147139 42.6032698 20.7294278 42.6032698 18.5583106 42.6032698 16.813079 44.3493188 16.813079 46.4346049"/>
    <path d="M7.74850136,20.9828338 C7.74850136,25.2408719 8.0893733,25.5809264 12.3449591,25.5809264 C14.5160763,25.5809264 16.2171662,27.326158 16.2171662,29.4523161 C16.2171662,31.6234332 14.5160763,33.3694823 12.3449591,33.3694823 C10.173842,33.3694823 8.43024523,31.6234332 8.43024523,29.4523161 C8.43024523,25.2408719 8.0893733,24.8983651 3.96049046,24.8983651 C1.79100817,24.8983651 0.0457765668,23.1547684 0.0457765668,20.9828338 C0.0457765668,18.8125341 1.79100817,17.1114441 3.96049046,17.1114441 C6.00326975,17.1114441 7.74850136,18.8125341 7.74850136,20.9828338"/>
    <path d="M7.74850136 29.4523161C7.74850136 33.7087193 8.0893733 34.0495913 12.3449591 34.0495913 14.5160763 34.0495913 16.2171662 35.793188 16.2171662 37.8367847 16.2171662 40.0087193 14.5160763 41.7523161 12.3449591 41.7523161 10.173842 41.7523161 8.43024523 40.0087193 8.43024523 37.8367847 8.43024523 33.7087193 8.0893733 33.3686649 3.96049046 33.3686649 1.79100817 33.3686649.0457765668 31.6226158.0457765668 29.4523161.0457765668 27.3253406 1.79100817 25.580109 3.96049046 25.580109 6.00326975 25.580109 7.74850136 27.3253406 7.74850136 29.4523161M24.6874659 29.4523161C24.6874659 33.7087193 25.0283379 34.0495913 29.2839237 34.0495913 31.3683924 34.0495913 33.0719346 35.793188 33.0719346 37.8367847 33.0719346 40.0087193 31.3683924 41.7523161 29.2839237 41.7523161 27.1128065 41.7523161 25.3683924 40.0087193 25.3683924 37.8367847 25.3683924 33.7087193 25.0283379 33.3686649 20.8144414 33.3686649 18.6433243 33.3686649 16.8989101 31.6226158 16.8989101 29.4523161 16.8989101 27.3253406 18.6433243 25.580109 20.8144414 25.580109 22.9847411 25.580109 24.6874659 27.3253406 24.6874659 29.4523161"/>
    <path d="M7.74850136 37.8367847C7.74850136 42.093188 8.0893733 42.4332425 12.3449591 42.4332425 14.5160763 42.4332425 16.2171662 44.1784741 16.2171662 46.347139 16.2171662 48.4765668 14.5160763 50.2209809 12.3449591 50.2209809 10.173842 50.2209809 8.43024523 48.4765668 8.43024523 46.347139 8.43024523 42.093188 8.0893733 41.7523161 3.96049046 41.7523161 1.79100817 41.7523161.0457765668 40.0087193.0457765668 37.8367847.0457765668 35.7940054 1.79100817 34.0495913 3.96049046 34.0495913 6.00326975 34.0495913 7.74850136 35.7940054 7.74850136 37.8367847M37.8384196 33.2828338C35.6681199 33.2828338 33.9645777 31.5376022 33.9645777 29.3689373 33.9645777 27.2386921 35.6681199 25.4950954 37.8384196 25.4950954 40.0087193 25.4950954 41.7106267 27.2386921 41.7106267 29.3689373 41.7106267 31.5376022 40.0087193 33.2828338 37.8384196 33.2828338M29.1138965 24.7283379C26.9435967 24.7283379 25.2833787 22.9839237 25.2833787 20.813624 25.2833787 18.6416894 26.9435967 16.9405995 29.1138965 16.9405995 31.2841962 16.9405995 32.986921 18.6416894 32.986921 20.813624 32.986921 22.9839237 31.2841962 24.7283379 29.1138965 24.7283379M16.2171662 12.4291553C16.2171662 14.599455 14.5160763 16.3438692 12.3449591 16.3438692 10.173842 16.3438692 8.42942779 14.599455 8.42942779 12.4291553 8.42942779 10.2580381 10.173842 8.55531335 12.3449591 8.55531335 14.5160763 8.55531335 16.2171662 10.2580381 16.2171662 12.4291553M72.0645777 9.58773842L76.8490463 9.58773842 85.8 49.6683924 80.0583106 49.6683924 78.3694823 41.0558583 70.5449591 41.0558583 68.8553134 49.6683924 63.113624 49.6683924 72.0645777 9.58773842zM74.4850136 21.1283379L74.3722071 21.1283379 71.5577657 35.6517711 77.299455 35.6517711 74.4850136 21.1283379 74.4850136 21.1283379zM91.4297003 9.58773842L99.9302452 9.58773842C106.403542 9.58773842 110.006812 13.4722071 110.006812 19.9455041L110.006812 38.6918256C110.006812 46.1223433 106.178747 49.6683924 99.4234332 49.6683924L91.4297003 49.6683924 91.4297003 9.58773842zM97.1713896 44.2643052L99.8174387 44.2643052C103.025886 44.2643052 104.264305 42.6882834 104.264305 39.2542234L104.264305 19.9455041C104.264305 16.7934605 103.195095 14.9918256 99.8174387 14.9918256L97.1713896 14.9918256 97.1713896 44.2643052 97.1713896 44.2643052zM124.587466 9.58773842L129.371935 9.58773842 138.322888 49.6683924 132.580381 49.6683924 130.892371 41.0558583 123.06703 41.0558583 121.378202 49.6683924 115.636512 49.6683924 124.587466 9.58773842zM127.007902 21.1283379L126.895095 21.1283379 124.080654 35.6517711 129.822343 35.6517711 127.007902 21.1283379 127.007902 21.1283379z"/>
    <polyline points="143.953 9.588 149.469 9.588 156.844 30.811 156.956 30.811 164.275 9.588 169.847 9.588 169.847 49.668 164.106 49.668 164.106 25.293 163.993 25.293 158.307 42.52 155.437 42.52 149.807 25.293 149.694 25.293 149.694 49.668 143.953 49.668 143.953 9.588"/>
    <path d="M193.435422 9.58773842L198.219891 9.58773842 207.170845 49.6683924 201.429155 49.6683924 199.740327 41.0558583 191.915804 41.0558583 190.226158 49.6683924 184.484469 49.6683924 193.435422 9.58773842zM195.855858 21.1283379L195.743052 21.1283379 192.92861 35.6517711 198.6703 35.6517711 195.855858 21.1283379 195.855858 21.1283379zM231.377657 40.6618529C231.377657 45.8975477 227.211989 50.006812 222.089101 50.006812 216.966213 50.006812 212.800545 45.8975477 212.800545 40.6618529L212.800545 9.58773842 218.543052 9.58773842 218.543052 40.0986376C218.543052 42.9138965 220.06267 44.2643052 222.089101 44.2643052 224.115531 44.2643052 225.635967 42.9138965 225.635967 40.0986376L225.635967 9.58773842 231.377657 9.58773842 231.377657 40.6618529M239.597003 9.58773842L248.097548 9.58773842C254.570845 9.58773842 258.174114 13.4722071 258.174114 19.9455041L258.174114 38.6918256C258.174114 46.1223433 254.346049 49.6683924 247.590736 49.6683924L239.597003 49.6683924 239.597003 9.58773842zM245.338692 44.2643052L247.984741 44.2643052C251.193188 44.2643052 252.431608 42.6882834 252.431608 39.2542234L252.431608 19.9455041C252.431608 16.7934605 251.362398 14.9918256 247.984741 14.9918256L245.338692 14.9918256 245.338692 44.2643052 245.338692 44.2643052z"/>
    <polygon points="266.563 49.668 272.304 49.668 272.304 9.588 266.563 9.588"/>
    <path d="M280.353678,19.0455041 C280.353678,12.5158038 285.307357,9.2493188 289.979837,9.2493188 C294.652316,9.2493188 299.605995,12.5158038 299.605995,19.0455041 L299.605995,40.2122616 C299.605995,46.7419619 294.652316,50.0059946 289.979837,50.0059946 C285.307357,50.0059946 280.353678,46.7419619 280.353678,40.2122616 L280.353678,19.0455041 Z M286.095368,40.2122616 C286.095368,42.9702997 287.897003,44.2643052 289.979837,44.2643052 C292.06267,44.2643052 293.864305,42.9702997 293.864305,40.2122616 L293.864305,19.0455041 C293.864305,16.2866485 292.06267,14.9918256 289.979837,14.9918256 C287.897003,14.9918256 286.095368,16.2866485 286.095368,19.0455041 L286.095368,40.2122616 L286.095368,40.2122616 Z"/>
  </g>
</svg>
