<svg xmlns="http://www.w3.org/2000/svg" width="42" height="375" viewBox="0 0 42 375">
  <path fill="#201300" fill-rule="evenodd" d="M0,0 L0,5.46711754 L35.8323497,5.46711754 L35.8323497,8.79882922 L0,8.79882922 L0,14.262956 L41.2964765,14.262956 L41.2964765,0 L0,0 Z M0,17.60364 L0,23.0677667 L35.8323497,23.0677667 L35.8323497,26.4054599 L0,26.4054599 L0,31.8755682 L41.2964765,31.8755682 L41.2964765,17.60364 L0,17.60364 Z M0,35.2102707 L0,40.6773882 L35.8323497,40.6773882 L35.8323497,44.0120907 L0,44.0120907 L0,49.4762174 L41.2964765,49.4762174 L41.2964765,35.2102707 L0,35.2102707 Z M0,52.8198922 L0,58.2810282 L35.8323497,58.2810282 L35.8323497,61.6187214 L0,61.6187214 L0,67.0888297 L41.2964765,67.0888297 L41.2964765,52.8198922 L0,52.8198922 Z M0,70.4265229 L0,75.8936404 L35.8323497,75.8936404 L35.8323497,79.2283429 L0,79.2283429 L0,84.6894789 L41.2964765,84.6894789 L41.2964765,70.4265229 L0,70.4265229 Z M0,88.0301629 L0,93.4972804 L35.8323497,93.4972804 L35.8323497,96.8379644 L0,96.8379644 L0,102.302091 L41.2964765,102.302091 L41.2964765,88.0301629 L0,88.0301629 Z M0,105.636794 L0,111.103911 L35.8323497,111.103911 L35.8323497,114.444595 L0,114.444595 L0,119.908722 L41.2964765,119.908722 L41.2964765,105.636794 L0,105.636794 Z M0,123.246415 L0,128.713533 L35.8323497,128.713533 L35.8323497,132.051226 L0,132.051226 L0,137.515353 L41.2964765,137.515353 L41.2964765,123.246415 L0,123.246415 Z M0,140.853046 L0,146.320163 L35.8323497,146.320163 L35.8323497,149.657857 L0,149.657857 L0,155.124974 L41.2964765,155.124974 L41.2964765,140.853046 L0,140.853046 Z M0,158.465658 L0,163.929785 L35.8323497,163.929785 L35.8323497,167.270469 L0,167.270469 L0,172.731605 L41.2964765,172.731605 L41.2964765,158.465658 L0,158.465658 Z M0,176.069298 L0,181.536416 L35.8323497,181.536416 L35.8323497,184.871118 L0,184.871118 L0,190.341226 L41.2964765,190.341226 L41.2964765,176.069298 L0,176.069298 Z M0,193.675929 L0,199.140056 L35.8323497,199.140056 L35.8323497,202.480739 L0,202.480739 L0,207.944866 L41.2964765,207.944866 L41.2964765,193.675929 L0,193.675929 Z M0,211.28555 L0,216.749677 L35.8323497,216.749677 L35.8323497,220.084379 L0,220.084379 L0,225.551497 L41.2964765,225.551497 L41.2964765,211.28555 L0,211.28555 Z M0,228.892181 L0,234.356308 L35.8323497,234.356308 L35.8323497,237.69101 L0,237.69101 L0,243.155137 L41.2964765,243.155137 L41.2964765,228.892181 L0,228.892181 Z M0,246.498812 L0,251.965929 L35.8323497,251.965929 L35.8323497,255.303622 L0,255.303622 L0,260.77074 L41.2964765,260.77074 L41.2964765,246.498812 L0,246.498812 Z M0,264.102452 L0,269.569569 L35.8323497,269.569569 L35.8323497,272.907262 L0,272.907262 L0,278.37438 L41.2964765,278.37438 L41.2964765,264.102452 L0,264.102452 Z M0,281.709082 L0,287.1762 L35.8323497,287.1762 L35.8323497,290.516884 L0,290.516884 L0,295.981011 L41.2964765,295.981011 L41.2964765,281.709082 L0,281.709082 Z M0,299.318704 L0,304.788812 L35.8323497,304.788812 L35.8323497,308.123515 L0,308.123515 L0,313.587641 L41.2964765,313.587641 L41.2964765,299.318704 L0,299.318704 Z M0,316.934307 L0,322.395443 L35.8323497,322.395443 L35.8323497,325.733136 L0,325.733136 L0,331.197263 L41.2964765,331.197263 L41.2964765,316.934307 L0,316.934307 Z M0,334.537947 L0,340.002074 L35.8323497,340.002074 L35.8323497,343.336776 L0,343.336776 L0,348.803894 L41.2964765,348.803894 L41.2964765,334.537947 L0,334.537947 Z M0,352.141587 L0,357.605714 L35.8323497,357.605714 L35.8323497,360.943407 L0,360.943407 L0,366.410524 L41.2964765,366.410524 L41.2964765,352.141587 L0,352.141587 Z M0,375 L41.2964765,375 L41.2964765,369.748218 L0,369.748218 L0,375 Z"/>
</svg>
