<?xml version="1.0" standalone="no"?>
<!DOCTYPE svg PUBLIC "-//W3C//DTD SVG 1.1//EN" "http://www.w3.org/Graphics/SVG/1.1/DTD/svg11.dtd" >
<svg>
<metadata>
Created by FontForge 20090622 at Thu Feb  9 09:04:52 2017
 By deploy user
Copyright 2010 by (URW)++ Design &#38; Development GmbH
</metadata>
<defs>
<font id="FetteEngD" horiz-adv-x="384" >
  <font-face 
    font-family="FetteEngD"
    font-weight="400"
    font-stretch="normal"
    units-per-em="1000"
    panose-1="0 0 5 0 0 0 0 0 0 0"
    ascent="667"
    descent="-333"
    x-height="476"
    cap-height="667"
    bbox="-89 -250 778 863"
    underline-thickness="86"
    underline-position="-11"
    unicode-range="U+0020-U+FB02"
  />
<missing-glyph horiz-adv-x="200" 
 />
    <glyph glyph-name="ff" unicode="ff" horiz-adv-x="431" 
d="M258 476v66q-1 56 37.5 92.5t95.5 32.5h34v-88h-36q-18 1 -27.5 -9t-8.5 -28v-66h72v-75h-72v-401h-95v401h-100v-401h-95v401h-47v75h47v66q-1 56 37.5 92.5t95.5 32.5h33v-88h-35q-18 1 -27.5 -9t-8.5 -28v-66h100z" />
    <glyph glyph-name="fi" unicode="fi" horiz-adv-x="396" 
d="M353 476v-476h-95v401h-100v-401h-95v401h-47v75h47v66q-1 56 37.5 92.5t95.5 32.5h27v-88h-29q-18 1 -27.5 -9t-8.5 -28v-66h195zM353 667v-93h-95v93h95z" />
    <glyph glyph-name="fl" unicode="fl" horiz-adv-x="417" 
d="M353 667v-530q-1 -26 7.5 -36t32.5 -10h7v-91h-21q-57 -1 -91 33t-30 87v459h-64q-18 1 -27.5 -9t-8.5 -28v-66h61v-75h-61v-401h-95v401h-47v75h47v66q-1 56 37.5 92.5t95.5 32.5h157z" />
    <glyph glyph-name=".notdef" horiz-adv-x="200" 
 />
    <glyph glyph-name=".null" horiz-adv-x="0" 
 />
    <glyph glyph-name="nonmarkingreturn" horiz-adv-x="333" 
 />
    <glyph glyph-name="space" unicode=" " horiz-adv-x="200" 
 />
    <glyph glyph-name="exclam" unicode="!" horiz-adv-x="323" 
d="M221 667l-36 -500h-46l-36 500h118zM209 95v-95h-95v95h95z" />
    <glyph glyph-name="quotedbl" unicode="&#x22;" 
d="M166 667v-173h-78v173h78zM297 667v-173h-78v173h78z" />
    <glyph glyph-name="numbersign" unicode="#" horiz-adv-x="440" 
d="M197 505h87l23 162h84l-23 -162h66l-12 -86h-66l-18 -131h66l-12 -86h-66l-29 -202h-84l29 202h-87l-28 -202h-84l28 202h-66l12 86h66l18 131h-66l13 86h65l23 162h84zM185 419l-18 -131h87l18 131h-87z" />
    <glyph glyph-name="dollar" unicode="$" 
d="M151 652v68h89v-68q50 -18 79.5 -61.5t28.5 -97.5v-30h-96v30q0 32 -15.5 51.5t-41.5 19.5q-25 0 -41 -19.5t-16 -51.5v-17q0 -35 12.5 -49t63.5 -35q74 -31 104 -69.5t30 -102.5v-41q4 -56 -26 -102.5t-82 -62.5v-81h-89v79q-53 15 -85 61.5t-30 105.5v24h96v-24
q0 -31 7 -44q15 -33 53 -33q29 0 47 23q13 18 13 55v33q1 37 -14 53.5t-71 39.5q-128 49 -124 170v17q-2 54 28 98t80 61z" />
    <glyph glyph-name="percent" unicode="%" horiz-adv-x="459" 
d="M86 548v50q0 31 21 53t51 22t51 -22t21 -53v-50q0 -25 -9 -38q-19 -34 -62 -34q-32 0 -52.5 20t-20.5 52zM134 598v-45q0 -29 24 -29t24 29v46q0 26 -24 26t-24 -27zM372 667l-223 -667h-63l226 667h60zM229 65v45q0 31 21 53t51 22t51 -22t21 -53v-45q0 -23 -8 -38
q-21 -33 -64 -33q-31 0 -51.5 20t-20.5 51zM277 110v-45q0 -29 24 -29t24 29v45q0 27 -24 27t-24 -27z" />
    <glyph glyph-name="ampersand" unicode="&#x26;" horiz-adv-x="568" 
d="M316 380l62 -137q14 39 22 129h79q-2 -57 -16 -126.5t-32 -117.5l59 -128h-108l-16 39q-55 -48 -115 -48q-76 0 -124.5 53.5t-48.5 138.5q0 69 27 119.5t93 104.5q-44 84 -44 143q0 56 36.5 91.5t94.5 35.5q57 0 94.5 -34.5t37.5 -86.5q0 -45 -21.5 -82.5t-79.5 -93.5z
M275 467q55 44 55 88q0 18 -12.5 30.5t-30.5 12.5t-29.5 -12.5t-11.5 -31.5q0 -39 29 -87zM323 135l-79 185q-69 -60 -69 -131q0 -43 23 -72.5t56 -29.5q44 0 69 48z" />
    <glyph glyph-name="quotesingle" unicode="'" horiz-adv-x="178" 
d="M128 667v-173h-78v173h78z" />
    <glyph glyph-name="parenleft" unicode="(" horiz-adv-x="327" 
d="M201 714h32q-43 -167 -43 -367q0 -208 51 -394h-33q-113 170 -113 385q0 203 106 376z" />
    <glyph glyph-name="parenright" unicode=")" horiz-adv-x="327" 
d="M93 714h33q106 -176 106 -376q0 -214 -113 -385h-33q51 183 51 395q0 198 -44 366z" />
    <glyph glyph-name="asterisk" unicode="*" horiz-adv-x="331" 
d="M78 441l-35 56l64 39l-63 40l34 56l56 -36v71h66v-71l55 36l35 -55l-63 -40l64 -39l-35 -55l-56 34v-68h-66v68z" />
    <glyph glyph-name="plus" unicode="+" 
d="M235 358h122v-86h-122v-116h-86v116h-121v86h121v116h86v-116z" />
    <glyph glyph-name="comma" unicode="," horiz-adv-x="191" 
d="M144 95v-95l-95 -71v166h95z" />
    <glyph glyph-name="hyphen" unicode="-" horiz-adv-x="387" 
d="M336 310v-95h-285v95h285z" />
    <glyph glyph-name="period" unicode="." horiz-adv-x="191" 
d="M143 95v-95h-95v95h95z" />
    <glyph glyph-name="slash" unicode="/" horiz-adv-x="317" 
d="M256 667l-129 -667h-66l129 667h66z" />
    <glyph glyph-name="zero" unicode="0" 
d="M49 147v377q0 70 46 112q42 37 97 37q38 0 71 -19t53 -51q18 -31 18 -79v-377q0 -59 -29 -97q-43 -56 -112 -56q-60 0 -102 44.5t-42 108.5zM239 147v377q0 25 -13 39.5t-35 14.5q-21 0 -34 -15t-13 -39v-377q0 -27 13 -42.5t35 -15.5q21 0 35 17q12 13 12 41z" />
    <glyph glyph-name="one" unicode="1" 
d="M272 667v-667h-95v567l-95 -71v101l95 70h95z" />
    <glyph glyph-name="two" unicode="2" 
d="M159 95h173v-95h-285v88l177 344q12 23 12 49v50q0 19 -14 32.5t-34 13.5q-27 0 -40 -21q-7 -10 -7 -32v-48h-96v48q3 46 18 74q19 35 52.5 55t73.5 20q60 0 101.5 -41.5t41.5 -100.5v-62q-2 -42 -23 -81z" />
    <glyph glyph-name="three" unicode="3" 
d="M327 525v-78q3 -64 -57 -100q33 -22 45.5 -44.5t11.5 -60.5v-89q0 -34 -3.5 -49.5t-15.5 -36.5q-20 -34 -53 -53.5t-71 -19.5q-40 0 -76 23.5t-53 61.5q-13 27 -13 74v39h95v-31q0 -42 13 -56q14 -16 36 -16q46 0 46 64v103q1 25 -15.5 38.5t-44.5 10.5h-17v84h17
q30 -2 45.5 12.5t14.5 43.5v80q0 25 -12.5 39t-33.5 14q-25 0 -41 -19q-8 -11 -8 -34v-49h-95v49q0 64 40.5 106t101.5 42q62 0 102.5 -42t40.5 -106z" />
    <glyph glyph-name="four" unicode="4" 
d="M307 102v-102h-95v102h-191v89l138 476h101l-143 -476h95v190h95v-190h47v-89h-47z" />
    <glyph glyph-name="five" unicode="5" 
d="M142 578v-178q37 30 77 30q26 0 51.5 -13.5t40.5 -35.5q20 -29 20 -80v-151q0 -38 -6 -58.5t-23 -41.5q-43 -56 -113 -56q-33 0 -65.5 17t-52.5 45q-25 37 -25 94v17h96v-17q0 -25 6 -36q14 -24 42 -24q25 0 38 21q8 11 8 46v130q0 32 -13 45q-15 15 -35 15
q-34 0 -46 -36h-84v356h273v-89h-189z" />
    <glyph glyph-name="six" unicode="6" 
d="M297 667l-108 -280q22 7 39 7q48 0 82 -36q25 -29 25 -82v-128q0 -52 -20 -85q-20 -32 -53 -50.5t-70 -18.5q-81 0 -123 68q-20 35 -20 86v105q0 37 15 76l125 338h108zM240 148v105q0 27 -12.5 42t-35.5 15q-20 0 -36 -16q-12 -13 -12 -41v-105q0 -58 49 -58q32 0 43 26
q4 9 4 32z" />
    <glyph glyph-name="seven" unicode="7" 
d="M243 578h-106v-78h-84v167h285v-87l-156 -580h-101z" />
    <glyph glyph-name="eight" unicode="8" 
d="M335 530v-85q-1 -62 -48 -92q48 -33 48 -94v-121q0 -60 -41 -102t-100 -42q-69 0 -114 56q-30 40 -30 99v116q3 56 48 88q-49 35 -48 98v91q0 50 44 90.5t99 40.5q59 0 100.5 -42t41.5 -101zM240 445v85q0 21 -13.5 34.5t-33.5 13.5q-21 0 -34.5 -13.5t-13.5 -34.5v-85
q0 -27 12.5 -42t35.5 -15q47 0 47 57zM240 149v116q0 51 -47 51q-21 0 -34.5 -14.5t-13.5 -36.5v-116q0 -60 47 -60q28 0 42 24q6 11 6 36z" />
    <glyph glyph-name="nine" unicode="9" 
d="M84 0l112 281q-23 -6 -40 -6q-51 0 -83 41q-14 17 -18.5 33.5t-4.5 51.5v136q0 38 28 78q41 58 114 58q61 0 102 -43t41 -106v-109q0 -35 -16 -78l-126 -337h-109zM240 415v109q0 25 -12.5 39.5t-34.5 14.5t-35 -14.5t-13 -39.5v-109q0 -26 13.5 -41t35.5 -15q17 0 32 13
q14 13 14 43z" />
    <glyph glyph-name="colon" unicode=":" horiz-adv-x="329" 
d="M212 393v-95h-95v95h95zM212 181v-95h-95v95h95z" />
    <glyph glyph-name="semicolon" unicode=";" horiz-adv-x="330" 
d="M213 95v-95l-95 -71v166h95zM212 262v-95h-95v95h95z" />
    <glyph glyph-name="less" unicode="&#x3c;" horiz-adv-x="500" 
d="M466 590v-103l-323 -154l323 -154v-102l-433 213v88z" />
    <glyph glyph-name="equal" unicode="=" 
d="M357 425v-86h-329v86h329zM357 291v-86h-329v86h329z" />
    <glyph glyph-name="greater" unicode="&#x3e;" horiz-adv-x="500" 
d="M34 590l433 -212v-88l-433 -213v102l323 154l-323 154v103z" />
    <glyph glyph-name="question" unicode="?" horiz-adv-x="436" 
d="M165 167v53q-1 65 30 118l50 81q16 26 16 62v52q0 19 -13.5 32t-33.5 13q-47 0 -47 -57v-45h-95v45q0 65 41.5 108.5t103.5 43.5q56 0 97.5 -41.5t41.5 -98.5v-57q0 -51 -23 -90l-49 -86q-16 -25 -19.5 -37t-3.5 -43v-53h-96zM261 95v-95h-96v95h96z" />
    <glyph glyph-name="at" unicode="@" horiz-adv-x="607" 
d="M454 106l36 -49q-79 -63 -183 -63q-62 0 -117 28t-92 78q-58 76 -58 195v76q0 119 58 195q37 51 92 79t117 28q57 0 110.5 -24t91.5 -66q58 -64 58 -165v-116q0 -73 -21 -106q-31 -46 -105 -46q-72 0 -92 53q-47 -53 -96 -53q-29 0 -50.5 21.5t-21.5 50.5q0 17 2 29
l16 184q3 35 28 58t59 23q45 0 67 -40l3 35h75l-20 -229q-3 -31 -3 -40q0 -19 11.5 -30t30.5 -11q25 0 35.5 18.5t10.5 62.5v130q0 78 -42 128q-27 32 -66.5 51t-80.5 19q-96 0 -154 -86q-42 -64 -42 -158v-66q0 -94 42 -158q58 -86 160 -86q71 0 141 50zM335 276l10 115
q1 7 1 16q0 14 -10 24t-24 10q-23 0 -35 -20q-5 -7 -7 -30l-10 -115v-18q1 -15 10.5 -24t23.5 -9t26 10q13 12 15 41z" />
    <glyph glyph-name="A" unicode="A" horiz-adv-x="379" 
d="M129 143l-27 -143h-101l149 667h83l149 -667h-102l-27 143h-124zM236 232l-45 243l-45 -243h90z" />
    <glyph glyph-name="B" unicode="B" horiz-adv-x="403" 
d="M52 0v667h157q66 -2 110 -47.5t42 -108.5v-52q-2 -78 -67 -108q66 -37 67 -112v-77q1 -70 -45 -116.5t-116 -45.5h-148zM147 393h57q33 1 51 21t17 55v42q1 28 -19.5 48t-51.5 19h-54v-185zM147 95h55q29 -2 50 18.5t20 48.5v77q1 31 -19.5 51t-52.5 19h-53v-214z" />
    <glyph glyph-name="C" unicode="C" horiz-adv-x="385" 
d="M259 190h95v-23q0 -60 -21 -97q-20 -34 -56.5 -55t-76.5 -21t-76.5 20.5t-56.5 54.5q-22 36 -22 98v344q0 70 44 116t111 46q66 0 110 -46.5t44 -115.5v-35h-95v35q0 31 -15.5 48.5t-43.5 17.5q-27 0 -43.5 -18t-16.5 -48v-344q0 -30 2.5 -39t13.5 -20q16 -18 43 -18
q34 0 53 29q7 12 7 48v23z" />
    <glyph glyph-name="D" unicode="D" horiz-adv-x="405" 
d="M52 0v667h151q66 0 112 -45t45 -109v-348q1 -72 -45.5 -119.5t-114.5 -45.5h-148zM147 89h47q35 -1 53.5 18.5t17.5 57.5v348q0 28 -20.5 47.5t-48.5 17.5h-49v-489z" />
    <glyph glyph-name="E" unicode="E" horiz-adv-x="373" 
d="M147 293v-198h190v-95h-285v667h285v-89h-190v-196h167v-89h-167z" />
    <glyph glyph-name="F" unicode="F" horiz-adv-x="368" 
d="M147 288v-288h-95v667h284v-89h-189v-201h166v-89h-166z" />
    <glyph glyph-name="G" unicode="G" horiz-adv-x="408" 
d="M366 370v-200q0 -62 -23 -100q-22 -36 -58 -56t-77 -20q-39 0 -75 17.5t-58 48.5q-30 40 -30 110v334q0 74 45 121.5t115 47.5q88 0 135 -72q26 -38 26 -97v-28h-95v28q0 28 -7 40q-19 34 -58 34q-30 0 -48 -20t-18 -54v-334q0 -33 6 -44q18 -36 60 -36q23 0 41 15
q14 12 19 25t5 40v117h-77v83h172z" />
    <glyph glyph-name="H" unicode="H" horiz-adv-x="414" 
d="M147 299v-299h-95v667h95v-285h120v285h95v-667h-95v299h-120z" />
    <glyph glyph-name="I" unicode="I" horiz-adv-x="199" 
d="M147 667v-667h-95v667h95z" />
    <glyph glyph-name="J" unicode="J" horiz-adv-x="328" 
d="M283 667v-493q0 -40 -5 -61.5t-21 -45.5q-23 -34 -58.5 -53.5t-74.5 -19.5q-76 0 -128 62l74 59q23 -26 53 -26q27 0 44 18q14 13 17.5 27t3.5 53v480h95z" />
    <glyph glyph-name="K" unicode="K" horiz-adv-x="422" 
d="M255 401l153 -401h-101l-107 298l-53 -99v-199h-95v667h95v-307l144 307h94z" />
    <glyph glyph-name="L" unicode="L" horiz-adv-x="357" 
d="M147 95h190v-95h-285v667h95v-572z" />
    <glyph glyph-name="M" unicode="M" horiz-adv-x="532" 
d="M480 667v-667h-95v406l-96 -285h-48l-94 285v-406h-95v667h88l127 -355l124 355h89z" />
    <glyph glyph-name="N" unicode="N" horiz-adv-x="437" 
d="M385 667v-667h-89l-149 405v-405h-95v667h89l149 -404v404h95z" />
    <glyph glyph-name="O" unicode="O" horiz-adv-x="411" 
d="M366 505v-343q0 -66 -35 -109q-48 -59 -125 -59q-70 0 -115.5 47.5t-45.5 120.5v343q0 73 45.5 120.5t115.5 47.5q77 0 125 -59q35 -43 35 -109zM271 165v340q0 30 -12 46q-21 27 -52 27q-36 0 -58 -32q-9 -15 -9 -41v-340q0 -40 22 -59q20 -17 44 -17q38 0 57 34
q8 13 8 42z" />
    <glyph glyph-name="P" unicode="P" horiz-adv-x="377" 
d="M147 263v-263h-95v667h156q60 -1 104 -41.5t49 -101.5v-96q4 -72 -44.5 -120.5t-120.5 -44.5h-49zM147 353h50q37 -1 57.5 19.5t17.5 55.5v87q2 26 -18.5 45t-48.5 18h-58v-225z" />
    <glyph glyph-name="Q" unicode="Q" horiz-adv-x="408" 
d="M367 -17l-58 47q-45 -36 -102 -36q-75 0 -125 57q-22 25 -29.5 50t-7.5 69v332q0 74 46 122.5t116 48.5q66 0 113 -46.5t47 -111.5v-345q0 -48 -10 -71l63 -53zM232 95l-44 36l54 64l30 -25v332q0 35 -18 55.5t-48 20.5q-27 0 -46 -19q-20 -20 -20 -57v-332
q0 -27 3.5 -38.5t15.5 -22.5q22 -20 48 -20q12 0 25 6z" />
    <glyph glyph-name="R" unicode="R" horiz-adv-x="412" 
d="M147 286v-286h-95v667h166q62 3 108.5 -44.5t46.5 -113.5v-62q5 -91 -78 -141l102 -306h-102l-89 286h-59zM147 370h66q35 -2 54.5 19.5t16.5 57.5v62q0 31 -19.5 50.5t-50.5 18.5h-67v-208z" />
    <glyph glyph-name="S" unicode="S" horiz-adv-x="387" 
d="M26 190h96v-24q0 -29 8 -44q18 -33 60 -33q40 0 60 31q9 14 9 47v46q1 38 -15 54t-77 39q-138 49 -134 170v30q0 70 47 118.5t114 48.5q68 0 114 -48.5t46 -118.5v-30h-95v30q0 33 -18 52.5t-48 19.5q-29 0 -47 -20t-18 -52v-30q0 -35 13.5 -49t68.5 -35
q79 -30 111.5 -69t32.5 -103v-54q0 -39 -6.5 -61t-25.5 -47q-49 -64 -131 -64q-88 0 -136 70q-29 41 -29 102v24z" />
    <glyph glyph-name="T" unicode="T" horiz-adv-x="352" 
d="M223 578v-578h-95v578h-112v89h321v-89h-114z" />
    <glyph glyph-name="U" unicode="U" horiz-adv-x="413" 
d="M361 667v-510q0 -50 -22 -87q-47 -76 -133 -76q-42 0 -79 21.5t-57 57.5q-19 37 -19 84v510h95v-510q0 -34 20 -53q16 -15 40 -15q28 0 44 18.5t16 49.5v510h95z" />
    <glyph glyph-name="V" unicode="V" horiz-adv-x="366" 
d="M363 667l-139 -667h-82l-136 667h100l77 -463l79 463h101z" />
    <glyph glyph-name="W" unicode="W" horiz-adv-x="553" 
d="M539 667l-94 -667h-90l-78 406l-77 -406h-88l-97 667h102l47 -403l77 403h71l78 -403l48 403h101z" />
    <glyph glyph-name="X" unicode="X" 
d="M241 353l137 -353h-101l-83 226l-84 -226h-101l137 353l-124 314h100l72 -196l72 196h100z" />
    <glyph glyph-name="Y" unicode="Y" horiz-adv-x="343" 
d="M220 287v-287h-95v287l-129 380h100l77 -261l78 261h100z" />
    <glyph glyph-name="Z" unicode="Z" horiz-adv-x="345" 
d="M318 95v-95h-286v85l179 493h-166v89h273v-76l-179 -496h179z" />
    <glyph glyph-name="bracketleft" unicode="[" horiz-adv-x="327" 
d="M241 714v-53h-59v-655h59v-53h-146v761h146z" />
    <glyph glyph-name="backslash" unicode="\" horiz-adv-x="317" 
d="M61 667h65l130 -667h-66z" />
    <glyph glyph-name="bracketright" unicode="]" horiz-adv-x="327" 
d="M85 714h146v-761h-146v53h59v655h-59v53z" />
    <glyph glyph-name="asciicircum" unicode="^" horiz-adv-x="500" 
d="M120 366h-94l166 303h116l167 -303h-95l-130 233z" />
    <glyph glyph-name="underscore" unicode="_" horiz-adv-x="500" 
d="M0 -54h500v-86h-500v86z" />
    <glyph glyph-name="grave" unicode="`" horiz-adv-x="500" 
d="M250 680l51 -117h-79l-74 117h102z" />
    <glyph glyph-name="a" unicode="a" horiz-adv-x="361" 
d="M224 0v48q-33 -54 -90 -54q-58 0 -88 51q-13 23 -13 64v54q0 56 39.5 92t97.5 32h54v41q0 27 -9 39q-15 20 -38 20q-19 0 -32.5 -12.5t-15.5 -33.5h-96q2 60 43 100.5t101 40.5q58 0 100 -41.5t42 -99.5v-341h-95zM224 209h-36q-30 0 -43.5 -10.5t-15.5 -34.5v-23
q0 -24 13 -38t36 -14q22 0 36 17q7 9 8.5 17.5t1.5 39.5v46z" />
    <glyph glyph-name="b" unicode="b" horiz-adv-x="367" 
d="M138 667v-238q32 53 91 53q46 0 73 -30t27 -80v-261q0 -32 -3.5 -46t-14.5 -29q-31 -42 -83 -42q-56 0 -90 54v-48h-95v667h95zM234 156v179q0 23 -13 37.5t-35 14.5t-35 -14.5t-13 -37.5v-188q0 -31 14 -44q14 -14 34 -14t34 14q10 11 12 17.5t2 35.5z" />
    <glyph glyph-name="c" unicode="c" horiz-adv-x="343" 
d="M225 143h95q1 -63 -40.5 -106t-102.5 -43q-33 0 -65 16.5t-51 44.5q-26 36 -26 92v186q0 62 42 105.5t102 43.5q50 0 89 -32.5t49 -81.5q3 -12 3 -35h-95q0 24 -13 39t-34 15q-22 0 -35 -14.5t-13 -39.5v-186q0 -57 47 -57q22 0 35 14.5t13 38.5z" />
    <glyph glyph-name="d" unicode="d" horiz-adv-x="366" 
d="M323 667v-667h-95v49q-33 -55 -90 -55q-48 0 -79 39q-13 17 -17 33.5t-4 55.5v257q0 44 29 73.5t72 29.5q59 0 89 -51v236h95zM228 153v171q0 33 -11 45q-13 18 -37 18q-30 0 -42 -25q-5 -9 -5 -38v-171q0 -35 12 -48q14 -16 36 -16q19 0 32 13q10 9 12.5 17.5t2.5 33.5z
" />
    <glyph glyph-name="e" unicode="e" horiz-adv-x="353" 
d="M130 204v-49q0 -27 2 -34t11 -17q12 -15 34 -15q42 0 48 49h95q0 -59 -41.5 -101.5t-100.5 -42.5q-39 0 -73 20.5t-52 54.5q-18 31 -18 86v180q0 61 42 104t101 43q61 0 101.5 -42t40.5 -105v-131h-190zM225 281v48q0 58 -47 58q-29 0 -42 -24q-6 -10 -6 -34v-48h95z" />
    <glyph glyph-name="f" unicode="f" horiz-adv-x="235" 
d="M158 401v-401h-95v401h-47v75h47v66q-1 56 37.5 92.5t95.5 32.5h33v-88h-35q-18 1 -27.5 -9t-8.5 -28v-66h71v-75h-71z" />
    <glyph glyph-name="g" unicode="g" horiz-adv-x="363" 
d="M321 476v-517q0 -58 -21 -91q-43 -65 -122 -65q-60 0 -101.5 42t-41.5 103h95q5 -49 48 -49q25 0 39 20q9 13 9 40v90q-32 -55 -91 -55q-26 0 -50 14.5t-38 37.5q-8 15 -10 25.5t-2 41.5v265q0 46 28.5 75t72.5 29q55 0 90 -51v45h95zM226 149v181q0 59 -48 59
q-18 0 -33 -13q-15 -15 -15 -46v-181q0 -25 6 -36q14 -24 43 -24q47 0 47 60z" />
    <glyph glyph-name="h" unicode="h" horiz-adv-x="371" 
d="M138 667v-237q34 52 89 52t85 -46q16 -25 16 -67v-369h-95v333q0 54 -47 54q-21 0 -34.5 -15t-13.5 -39v-333h-95v667h95z" />
    <glyph glyph-name="i" unicode="i" horiz-adv-x="181" 
d="M138 476v-476h-95v476h95zM138 667v-93h-95v93h95z" />
    <glyph glyph-name="j" unicode="j" horiz-adv-x="181" 
d="M138 476v-524q2 -62 -36.5 -103t-98.5 -40h-17v91h9q51 2 48 60v516h95zM138 667v-93h-95v93h95z" />
    <glyph glyph-name="k" unicode="k" horiz-adv-x="380" 
d="M138 132v-132h-95v667h95v-397l119 206h96l-113 -189l136 -287h-107l-84 203z" />
    <glyph glyph-name="l" unicode="l" horiz-adv-x="202" 
d="M143 667v-530q-1 -26 7.5 -36t32.5 -10h7v-91h-21q-57 -1 -91 33t-30 87v547h95z" />
    <glyph glyph-name="m" unicode="m" horiz-adv-x="561" 
d="M138 476v-43q33 49 89 49q54 0 87 -49q38 49 93 49q50 0 81.5 -33.5t31.5 -85.5v-363h-95v337q0 50 -46 50q-22 0 -36 -14.5t-14 -35.5v-337h-95v337q0 22 -13.5 36t-34.5 14q-20 0 -34 -14.5t-14 -35.5v-337h-95v476h95z" />
    <glyph glyph-name="n" unicode="n" horiz-adv-x="371" 
d="M138 476v-46q31 52 89 52t87 -49q14 -22 14 -63v-370h-95v335q0 52 -46 52q-22 0 -35.5 -14.5t-13.5 -37.5v-335h-95v476h95z" />
    <glyph glyph-name="o" unicode="o" horiz-adv-x="355" 
d="M35 146v190q0 62 41.5 104t102.5 42t101 -41.5t40 -104.5v-190q0 -65 -41 -108.5t-102 -43.5t-101.5 43.5t-40.5 108.5zM225 146v190q0 23 -13 37t-35 14q-21 0 -34 -14t-13 -37v-190q0 -25 13 -40.5t35 -15.5q27 0 41 22q6 10 6 34z" />
    <glyph glyph-name="p" unicode="p" horiz-adv-x="367" 
d="M138 47v-238h-95v667h95v-47q34 53 90 53q44 0 72.5 -30t28.5 -76v-274q0 -36 -15 -61q-29 -47 -85 -47q-59 0 -91 53zM234 148v186q0 24 -13 38.5t-35 14.5t-35 -14.5t-13 -38.5v-186q0 -59 48 -59q30 0 43 25q5 9 5 34z" />
    <glyph glyph-name="q" unicode="q" horiz-adv-x="366" 
d="M323 476v-667h-95v238q-36 -53 -88 -53q-58 0 -88 50q-14 23 -14 61v274q0 44 29 73.5t72 29.5q57 0 89 -53v47h95zM228 153v181q0 24 -13 38.5t-34 14.5q-22 0 -35 -14.5t-13 -38.5v-181q0 -33 10 -47q14 -17 37 -17q27 0 42 23q6 11 6 41z" />
    <glyph glyph-name="r" unicode="r" horiz-adv-x="279" 
d="M138 476v-51q47 54 124 58v-99q-17 4 -29 4q-34 0 -63 -24q-18 -17 -25 -35.5t-7 -49.5v-279h-95v476h95z" />
    <glyph glyph-name="s" unicode="s" horiz-adv-x="330" 
d="M23 137h89q0 -23 15.5 -38t38.5 -15q22 0 37 15.5t15 38.5q0 22 -11.5 34t-43.5 23l-19 7q-63 23 -85 50q-31 39 -31 89q0 59 40 100t97 41q56 0 95.5 -39.5t40.5 -97.5h-88q-1 22 -14 34.5t-33 12.5q-21 0 -34.5 -14t-13.5 -36q0 -21 11 -33t40 -22l31 -10
q49 -17 74 -45q35 -45 35 -95q0 -58 -42 -101t-99 -43q-38 0 -72.5 19.5t-53.5 50.5q-19 34 -19 74z" />
    <glyph glyph-name="t" unicode="t" horiz-adv-x="235" 
d="M147 401v-268q-1 -24 6.5 -33t30.5 -9h22v-91h-30q-56 -3 -91.5 30.5t-32.5 85.5v285h-47v75h47v145h95v-145h59v-75h-59z" />
    <glyph glyph-name="u" unicode="u" horiz-adv-x="371" 
d="M328 476v-476h-95v48q-35 -54 -88 -54q-60 0 -90 53q-12 24 -12 71v358h95v-322q0 -30 6 -41q11 -24 41 -24q28 0 41 24q7 12 7 41v322h95z" />
    <glyph glyph-name="v" unicode="v" horiz-adv-x="328" 
d="M332 476l-125 -476h-84l-124 476h101l65 -308l66 308h101z" />
    <glyph glyph-name="w" unicode="w" horiz-adv-x="506" 
d="M504 476l-113 -476h-82l-54 285l-54 -285h-83l-114 476h101l60 -296l54 296h70l55 -296l59 296h101z" />
    <glyph glyph-name="x" unicode="x" horiz-adv-x="318" 
d="M210 245l116 -245h-101l-63 149l-67 -149h-101l121 245l-113 231h102l58 -135l62 135h101z" />
    <glyph glyph-name="y" unicode="y" horiz-adv-x="329" 
d="M330 476l-137 -557q-11 -53 -48 -82t-89 -28h-22v90h20q26 1 39 13.5t19 41.5l17 65l-132 457h101l66 -296l65 296h101z" />
    <glyph glyph-name="z" unicode="z" horiz-adv-x="305" 
d="M283 89v-89h-261v77l154 316h-143v83h250v-71l-154 -316h154z" />
    <glyph glyph-name="braceleft" unicode="{" horiz-adv-x="327" 
d="M186 563v-113q-2 -54 -15 -78.5t-49 -38.5q36 -16 49.5 -41.5t14.5 -77.5v-121q-1 -53 17.5 -70t76.5 -17v-53q-101 -4 -140.5 28.5t-38.5 117.5v119q-1 48 -12.5 67t-44.5 26v49q32 6 45 27t12 67v122q0 74 35 106t114 32q18 0 30 -1v-52q-61 -1 -78.5 -19.5
t-15.5 -78.5z" />
    <glyph glyph-name="bar" unicode="|" horiz-adv-x="500" 
d="M198 667h104v-834h-104v834z" />
    <glyph glyph-name="braceright" unicode="}" horiz-adv-x="327" 
d="M141 93v121q1 52 14.5 77.5t49.5 41.5q-36 14 -49 38.5t-15 78.5v113q2 60 -15.5 78.5t-78.5 19.5v52q12 1 30 1q79 0 114 -32t35 -106v-122q-1 -46 12 -67t45 -27v-49q-33 -7 -44.5 -26t-12.5 -67v-119q1 -85 -38.5 -117.5t-140.5 -28.5v53q58 0 76.5 17t17.5 70z" />
    <glyph glyph-name="asciitilde" unicode="~" horiz-adv-x="667" 
d="M147 571l-53 42q55 121 139 121q38 0 113 -37q67 -31 92 -31q45 0 84 70l52 -42q-28 -64 -61.5 -93t-77.5 -29q-30 0 -110 37q-69 32 -95 32q-24 0 -42.5 -16t-40.5 -54z" />
    <glyph glyph-name="uni00A0" unicode="&#xa0;" horiz-adv-x="200" 
 />
    <glyph glyph-name="exclamdown" unicode="&#xa1;" horiz-adv-x="323" 
d="M103 0l36 499h46l36 -499h-118zM115 572v95h95v-95h-95z" />
    <glyph glyph-name="cent" unicode="&#xa2;" horiz-adv-x="333" 
d="M219 83v-83h-89v83q-48 16 -74 54.5t-24 90.5v186q-1 48 27 88.5t71 54.5v70h89v-69q46 -16 73 -55.5t25 -88.5h-95q0 25 -13 40t-34 15q-22 0 -35 -15t-13 -40v-186q0 -57 48 -57q21 0 34 14.5t13 38.5h95q1 -48 -25.5 -86.5t-72.5 -54.5z" />
    <glyph glyph-name="sterling" unicode="&#xa3;" 
d="M68 278h-47v89h47v144q0 71 42 116.5t108 45.5q40 0 73 -18.5t52 -50.5q21 -36 21 -93v-35h-95v35q0 31 -14 48.5t-39 17.5q-24 0 -38.5 -18t-14.5 -48v-144h138v-89h-138v-183h219v-95h-361v88h7q24 -1 32.5 9t7.5 36v145z" />
    <glyph glyph-name="currency" unicode="&#xa4;" horiz-adv-x="391" 
d="M328 261l54 -55l-60 -60l-49 48q-37 -22 -78 -22t-78 22l-49 -48l-60 60l54 55q-8 24 -8 54v36q0 31 8 54l-54 55l60 60l49 -48q39 22 78 22t78 -22l49 48l60 -60l-54 -55q8 -23 8 -54v-36q0 -30 -8 -54zM258 324v18q0 30 -17.5 50t-45.5 20t-45.5 -19.5t-17.5 -50.5v-18
q0 -31 17.5 -50.5t45.5 -19.5t45.5 20t17.5 50z" />
    <glyph glyph-name="yen" unicode="&#xa5;" 
d="M241 211v-211h-95v211h-109v86h105l-22 67h-90v86h60l-73 217h100l77 -261l78 261h101l-75 -217h55v-86h-85l-23 -67h108v-86h-112z" />
    <glyph glyph-name="brokenbar" unicode="&#xa6;" horiz-adv-x="500" 
d="M198 667h104v-341h-104v341zM198 153h104v-320h-104v320z" />
    <glyph glyph-name="section" unicode="&#xa7;" 
d="M351 566h-94q-1 29 -7 42q-15 30 -60 30q-30 0 -47 -15.5t-17 -42.5q0 -30 18.5 -45.5t79.5 -36.5q76 -27 109 -62t33 -89q0 -78 -67 -126q52 -45 52 -123q0 -74 -44.5 -119t-117.5 -45q-60 0 -104 30.5t-57 82.5q-5 20 -5 54h93q3 -72 73 -72q66 0 66 68q0 38 -21 56.5
t-90 42.5q-67 25 -97 58.5t-30 85.5q0 81 67 127q-54 46 -54 113q0 68 44 110.5t114 42.5t116.5 -43t46.5 -108v-16zM221 391l-78 31q-31 -28 -31 -66q0 -48 47 -66l77 -29q35 28 35 67q0 45 -50 63z" />
    <glyph glyph-name="dieresis" unicode="&#xa8;" horiz-adv-x="500" 
d="M225 667v-92h-94v92h94zM369 667v-92h-94v92h94z" />
    <glyph glyph-name="copyright" unicode="&#xa9;" horiz-adv-x="660" 
d="M362 257h75v-20q0 -39 -15 -60q-31 -47 -91 -47q-61 0 -93 47q-15 22 -15 60v199q0 43 30.5 71.5t76.5 28.5t76.5 -28.5t30.5 -71.5v-27h-75v27q0 31 -32 31t-32 -31v-199q0 -18 3 -23q8 -15 29 -15q18 0 29 14q3 4 3 24v20zM33 295v77q0 117 65 195q42 50 103.5 78
t128.5 28t128.5 -28t103.5 -78q65 -78 65 -195v-77q0 -117 -65 -195q-42 -50 -103.5 -78t-128.5 -28t-128.5 28t-103.5 78q-65 78 -65 195zM569 301v65q0 100 -53 166q-34 43 -83 67t-103 24t-103 -24t-83 -67q-53 -66 -53 -166v-65q0 -100 53 -166q34 -43 83 -67t103 -24
t103 24t83 67q53 66 53 166z" />
    <glyph glyph-name="ordfeminine" unicode="&#xaa;" horiz-adv-x="294" 
d="M171 267v29q-17 -32 -52 -32q-41 0 -62 32q-10 15 -10 41v26q-1 35 26.5 57.5t68.5 20.5h29v22q0 27 -25 27q-22 0 -25 -22h-74q-1 39 27.5 65t72.5 26q41 0 70 -26t29 -62v-204h-75zM171 388h-17q-32 0 -32 -19v-21q0 -22 24 -22q14 0 19.5 7.5t5.5 27.5v27z" />
    <glyph glyph-name="guillemotleft" unicode="&#xab;" horiz-adv-x="425" 
d="M112 288l95 -95v-96l-190 191l190 190v-94zM291 288l95 -95v-96l-190 191l190 190v-94z" />
    <glyph glyph-name="logicalnot" unicode="&#xac;" horiz-adv-x="500" 
d="M365 0v191h-332v91h433v-282h-101z" />
    <glyph glyph-name="uni00AD" unicode="&#xad;" horiz-adv-x="387" 
d="M336 310v-95h-285v95h285z" />
    <glyph glyph-name="registered" unicode="&#xae;" horiz-adv-x="660" 
d="M291 299v-166h-75v400h115q44 2 76 -27.5t32 -70.5v-36q3 -53 -49 -85l67 -181h-80l-59 166h-27zM291 361h37q20 -1 31 9.5t9 28.5v36q0 15 -11 24t-29 9h-37v-107zM33 295v77q0 117 65 195q42 50 103.5 78t128.5 28t128.5 -28t103.5 -78q65 -78 65 -195v-77
q0 -117 -65 -195q-42 -50 -103.5 -78t-128.5 -28t-128.5 28t-103.5 78q-65 78 -65 195zM569 301v65q0 100 -53 166q-34 43 -83 67t-103 24t-103 -24t-83 -67q-53 -66 -53 -166v-65q0 -100 53 -166q34 -43 83 -67t103 -24t103 24t83 67q53 66 53 166z" />
    <glyph glyph-name="macron" unicode="&#xaf;" horiz-adv-x="500" 
d="M364 665v-77h-227v77h227z" />
    <glyph glyph-name="degree" unicode="&#xb0;" 
d="M192 677q46 0 77 -31.5t31 -77.5q0 -44 -32 -75.5t-76 -31.5q-45 0 -76.5 31.5t-31.5 76.5t31.5 76.5t76.5 31.5zM193 611q-17 0 -29.5 -12t-12.5 -29t12.5 -29.5t29.5 -12.5t29 12t12 29q0 18 -12 30t-29 12z" />
    <glyph glyph-name="plusminus" unicode="&#xb1;" 
d="M235 358h122v-86h-122v-116h-86v116h-121v86h121v116h86v-116zM357 111v-86h-329v86h329z" />
    <glyph glyph-name="twosuperior" unicode="&#xb2;" horiz-adv-x="270" 
d="M125 335h107v-69h-198v60l116 202q7 10 7 25v29q0 19 -24 19t-24 -23v-35h-76v35q1 41 29 66.5t71 25.5q41 0 70 -25.5t29 -62.5v-36q-2 -29 -16 -51z" />
    <glyph glyph-name="threesuperior" unicode="&#xb3;" horiz-adv-x="270" 
d="M229 577v-45q1 -19 -8 -31t-33 -26q42 -18 41 -61v-51q0 -34 -13 -54q-31 -45 -86 -45q-29 0 -53.5 14.5t-36.5 38.5q-9 17 -9 46v22h75v-18q0 -34 25 -34q23 0 23 30v59q0 24 -32 22h-11v61h11q17 -1 25 5.5t7 20.5v46q0 24 -23 24q-25 0 -25 -24v-28h-75v28q0 41 28 67
t71 26t71 -26.5t28 -66.5z" />
    <glyph glyph-name="acute" unicode="&#xb4;" horiz-adv-x="500" 
d="M254 680h101l-74 -117h-79z" />
    <glyph glyph-name="mu" unicode="&#xb5;" horiz-adv-x="371" 
d="M43 476h95v-322q0 -29 6 -40q11 -24 41 -24q28 0 41 24q7 10 7 40v322h95v-476h-95v48q-25 -54 -64 -54q-17 0 -31 10v-195h-95v667z" />
    <glyph glyph-name="paragraph" unicode="&#xb6;" horiz-adv-x="410" 
d="M183 329h-29q-57 -4 -95.5 44.5t-35.5 119.5v97q5 60 39 101.5t80 41.5h230v-800h-74v737h-41v-737h-74v396z" />
    <glyph glyph-name="periodcentered" unicode="&#xb7;" horiz-adv-x="191" 
d="M143 305v-95h-95v95h95z" />
    <glyph glyph-name="cedilla" unicode="&#xb8;" horiz-adv-x="500" 
d="M271 0l-10 -47q11 3 16 3q26 0 43.5 -18t17.5 -46q0 -34 -24 -56.5t-59 -22.5q-33 0 -71 19l10 42q28 -17 53 -17q12 0 20 8.5t8 21.5q0 28 -26 28q-9 0 -26 -6l-14 20l17 71h45z" />
    <glyph glyph-name="onesuperior" unicode="&#xb9;" horiz-adv-x="270" 
d="M193 667v-400h-75v323l-62 -41v74l67 44h70z" />
    <glyph glyph-name="ordmasculine" unicode="&#xba;" horiz-adv-x="291" 
d="M46 358v110q0 39 29 65t72 26q42 0 70 -26t28 -65v-110q0 -41 -28.5 -68t-71.5 -27t-71 27t-28 68zM170 358v110q0 22 -25 22q-11 0 -17.5 -6t-6.5 -16v-110q0 -26 25 -26q24 0 24 26z" />
    <glyph glyph-name="guillemotright" unicode="&#xbb;" horiz-adv-x="429" 
d="M142 288l-95 96v94l190 -190l-190 -191v96zM323 288l-95 96v94l190 -190l-190 -191v96z" />
    <glyph glyph-name="onequarter" unicode="&#xbc;" horiz-adv-x="656" 
d="M173 667v-400h-75v323l-62 -41v74l67 44h70zM455 667l-226 -667h-69l226 667h69zM376 59v59l99 282h79l-100 -276h63v111h72v-111h27v-65h-27v-59h-72v59h-141z" />
    <glyph glyph-name="onehalf" unicode="&#xbd;" horiz-adv-x="656" 
d="M180 667v-400h-75v323l-62 -41v74l67 44h70zM462 667l-226 -667h-69l226 667h69zM497 69h108v-69h-198v60l116 201q6 12 6 25v29q0 19 -24 19t-24 -23v-35h-76v35q4 29 13 46q28 46 88 46q41 0 70 -25.5t29 -62.5v-36q-2 -29 -16 -51z" />
    <glyph glyph-name="threequarters" unicode="&#xbe;" horiz-adv-x="656" 
d="M229 577v-45q1 -19 -8 -31t-33 -26q42 -18 41 -61v-51q0 -34 -13 -54q-31 -45 -86 -45q-29 0 -53.5 14.5t-36.5 38.5q-9 17 -9 46v22h75v-18q0 -34 25 -34q23 0 23 30v59q0 24 -32 22h-11v61h11q17 -1 25 5.5t7 20.5v46q0 24 -23 24q-25 0 -25 -24v-28h-75v28q0 41 28 67
t71 26t71 -26.5t28 -66.5zM486 667l-226 -667h-69l225 667h70zM397 59v59l98 282h79l-99 -276h62v111h72v-111h27v-65h-27v-59h-72v59h-140z" />
    <glyph glyph-name="questiondown" unicode="&#xbf;" horiz-adv-x="436" 
d="M271 500v-53q1 -38 -5.5 -63t-24.5 -56l-50 -81q-16 -26 -16 -62v-52q0 -19 13.5 -31.5t33.5 -12.5q47 0 47 56v45h95v-45q0 -65 -41.5 -108t-103.5 -43q-56 0 -97.5 41.5t-41.5 97.5v57q0 51 23 90l49 86q16 26 19.5 38t3.5 43v53h96zM175 572v95h96v-95h-96z" />
    <glyph glyph-name="Agrave" unicode="&#xc0;" horiz-adv-x="379" 
d="M129 143l-27 -143h-101l149 667h83l149 -667h-102l-27 143h-124zM236 232l-45 243l-45 -243h90zM177 837l51 -117h-79l-74 117h102z" />
    <glyph glyph-name="Aacute" unicode="&#xc1;" horiz-adv-x="379" 
d="M129 143l-27 -143h-101l149 667h83l149 -667h-102l-27 143h-124zM236 232l-45 243l-45 -243h90zM207 837h101l-74 -117h-79z" />
    <glyph glyph-name="Acircumflex" unicode="&#xc2;" horiz-adv-x="379" 
d="M129 143l-27 -143h-101l149 667h83l149 -667h-102l-27 143h-124zM236 232l-45 243l-45 -243h90zM311 720h-86l-36 60l-42 -60h-79l81 117h83z" />
    <glyph glyph-name="Atilde" unicode="&#xc3;" horiz-adv-x="379" 
d="M129 143l-27 -143h-101l149 667h83l149 -667h-102l-27 143h-124zM236 232l-45 243l-45 -243h90zM254 829h62q-3 -40 -10 -57q-20 -41 -66 -41q-17 0 -47 10t-41 10q-17 0 -22 -23h-66q4 100 76 100q21 0 72 -18q14 -4 20 -4q20 0 22 23z" />
    <glyph glyph-name="Adieresis" unicode="&#xc4;" horiz-adv-x="379" 
d="M129 143l-27 -143h-101l149 667h83l149 -667h-102l-27 143h-124zM236 232l-45 243l-45 -243h90zM159 811v-95h-94v95h94zM315 811v-95h-94v95h94z" />
    <glyph glyph-name="Aring" unicode="&#xc5;" horiz-adv-x="379" 
d="M129 143l-27 -143h-101l149 667h83l149 -667h-102l-27 143h-124zM236 232l-45 243l-45 -243h90zM190 863q34 0 58 -23.5t24 -58.5q0 -34 -24 -57.5t-58 -23.5t-58 24t-24 58t24 57.5t58 23.5zM191 809q-12 0 -20 -8t-8 -19t8.5 -19t19.5 -8t19 8t8 19t-8 19t-19 8z" />
    <glyph glyph-name="AE" unicode="&#xc6;" horiz-adv-x="622" 
d="M586 667v-89h-190v-196h167v-89h-167v-198h190v-95h-285v176h-132l-68 -176h-101l278 667h308zM301 514l-98 -249h98v249z" />
    <glyph glyph-name="Ccedilla" unicode="&#xc7;" horiz-adv-x="385" 
d="M222 -5l-8 -42q9 3 15 3q26 0 43.5 -18.5t17.5 -45.5q0 -34 -24 -56.5t-59 -22.5q-33 0 -70 19l9 42q29 -17 53 -17q12 0 20 8.5t8 21.5q0 28 -26 28q-10 0 -25 -6l-14 20l16 67q-63 13 -97.5 59t-31.5 112v344q0 70 44 116t111 46q66 0 110 -46.5t44 -115.5v-35h-95v35
q0 31 -15.5 48.5t-43.5 17.5q-27 0 -43.5 -18t-16.5 -48v-344q0 -30 2.5 -39.5t13.5 -20.5q17 -18 43 -18q34 0 53 29q7 13 7 49v23h95v-23q4 -68 -33 -114.5t-103 -57.5z" />
    <glyph glyph-name="Egrave" unicode="&#xc8;" horiz-adv-x="373" 
d="M147 293v-198h190v-95h-285v667h285v-89h-190v-196h167v-89h-167zM200 837l52 -117h-79l-75 117h102z" />
    <glyph glyph-name="Eacute" unicode="&#xc9;" horiz-adv-x="373" 
d="M147 293v-198h190v-95h-285v667h285v-89h-190v-196h167v-89h-167zM203 837h102l-74 -117h-79z" />
    <glyph glyph-name="Ecircumflex" unicode="&#xca;" horiz-adv-x="373" 
d="M147 293v-198h190v-95h-285v667h285v-89h-190v-196h167v-89h-167zM314 720h-86l-36 60l-42 -60h-79l82 117h83z" />
    <glyph glyph-name="Edieresis" unicode="&#xcb;" horiz-adv-x="373" 
d="M147 293v-198h190v-95h-285v667h285v-89h-190v-196h167v-89h-167zM163 811v-95h-94v95h94zM318 811v-95h-94v95h94z" />
    <glyph glyph-name="Igrave" unicode="&#xcc;" horiz-adv-x="199" 
d="M147 667v-667h-95v667h95zM93 837l51 -117h-79l-74 117h102z" />
    <glyph glyph-name="Iacute" unicode="&#xcd;" horiz-adv-x="199" 
d="M147 667v-667h-95v667h95zM110 837h101l-74 -117h-79z" />
    <glyph glyph-name="Icircumflex" unicode="&#xce;" horiz-adv-x="199" 
d="M147 667v-667h-95v667h95zM220 720h-86l-36 60l-42 -60h-79l82 117h83z" />
    <glyph glyph-name="Idieresis" unicode="&#xcf;" horiz-adv-x="199" 
d="M147 667v-667h-95v667h95zM79 811v-95h-81v95h81zM201 811v-95h-81v95h81z" />
    <glyph glyph-name="Eth" unicode="&#xd0;" horiz-adv-x="405" 
d="M52 291h-42v89h42v287h150q67 0 113 -45t45 -110v-347q1 -72 -45.5 -119.5t-114.5 -45.5h-148v291zM147 291v-202h46q36 -1 54.5 18.5t17.5 57.5v347q-1 29 -21 48t-48 18h-49v-198h58v-89h-58z" />
    <glyph glyph-name="Ntilde" unicode="&#xd1;" horiz-adv-x="437" 
d="M385 667v-667h-89l-149 405v-405h-95v667h89l149 -404v404h95zM283 829h62q-3 -40 -11 -57q-18 -41 -65 -41q-18 0 -47 10q-30 10 -41 10q-18 0 -22 -23h-67q6 100 77 100q21 0 72 -18q14 -4 20 -4q19 0 22 23z" />
    <glyph glyph-name="Ograve" unicode="&#xd2;" horiz-adv-x="411" 
d="M366 505v-343q0 -66 -35 -109q-48 -59 -125 -59q-70 0 -115.5 47.5t-45.5 120.5v343q0 73 45.5 120.5t115.5 47.5q77 0 125 -59q35 -43 35 -109zM271 165v340q0 30 -12 46q-21 27 -52 27q-36 0 -58 -32q-9 -15 -9 -41v-340q0 -40 22 -59q20 -17 44 -17q38 0 57 34
q8 13 8 42zM206 837l51 -117h-79l-74 117h102z" />
    <glyph glyph-name="Oacute" unicode="&#xd3;" horiz-adv-x="411" 
d="M366 505v-343q0 -66 -35 -109q-48 -59 -125 -59q-70 0 -115.5 47.5t-45.5 120.5v343q0 73 45.5 120.5t115.5 47.5q77 0 125 -59q35 -43 35 -109zM271 165v340q0 30 -12 46q-21 27 -52 27q-36 0 -58 -32q-9 -15 -9 -41v-340q0 -40 22 -59q20 -17 44 -17q38 0 57 34
q8 13 8 42zM209 837h102l-75 -117h-79z" />
    <glyph glyph-name="Ocircumflex" unicode="&#xd4;" horiz-adv-x="411" 
d="M366 505v-343q0 -66 -35 -109q-48 -59 -125 -59q-70 0 -115.5 47.5t-45.5 120.5v343q0 73 45.5 120.5t115.5 47.5q77 0 125 -59q35 -43 35 -109zM271 165v340q0 30 -12 46q-21 27 -52 27q-36 0 -58 -32q-9 -15 -9 -41v-340q0 -40 22 -59q20 -17 44 -17q38 0 57 34
q8 13 8 42zM326 720h-85l-37 60l-42 -60h-79l82 117h83z" />
    <glyph glyph-name="Otilde" unicode="&#xd5;" horiz-adv-x="411" 
d="M366 505v-343q0 -66 -35 -109q-48 -59 -125 -59q-70 0 -115.5 47.5t-45.5 120.5v343q0 73 45.5 120.5t115.5 47.5q77 0 125 -59q35 -43 35 -109zM271 165v340q0 30 -12 46q-21 27 -52 27q-36 0 -58 -32q-9 -15 -9 -41v-340q0 -40 22 -59q20 -17 44 -17q38 0 57 34
q8 13 8 42zM270 829h62q-3 -40 -11 -57q-18 -41 -65 -41q-18 0 -47 10q-30 10 -41 10q-18 0 -22 -23h-67q6 100 77 100q21 0 72 -18q14 -4 20 -4q19 0 22 23z" />
    <glyph glyph-name="Odieresis" unicode="&#xd6;" horiz-adv-x="411" 
d="M366 505v-343q0 -66 -35 -109q-48 -59 -125 -59q-70 0 -115.5 47.5t-45.5 120.5v343q0 73 45.5 120.5t115.5 47.5q77 0 125 -59q35 -43 35 -109zM271 165v340q0 30 -12 46q-21 27 -52 27q-36 0 -58 -32q-9 -15 -9 -41v-340q0 -40 22 -59q20 -17 44 -17q38 0 57 34
q8 13 8 42zM175 811v-95h-94v95h94zM330 811v-95h-94v95h94z" />
    <glyph glyph-name="multiply" unicode="&#xd7;" 
d="M192 376l98 97l61 -61l-98 -97l98 -98l-61 -61l-98 98l-97 -98l-61 61l97 98l-97 97l61 61z" />
    <glyph glyph-name="Oslash" unicode="&#xd8;" horiz-adv-x="411" 
d="M375 676l-31 -81q21 -36 22 -90v-343q0 -73 -45.5 -120.5t-115.5 -47.5q-43 0 -83 23l-20 -51l-66 25l31 82q-22 39 -22 89v343q0 73 45.5 120.5t115.5 47.5q41 0 83 -23l19 51zM271 414l-107 -310q20 -15 41 -15q39 0 58 34q8 13 8 42v249zM140 253l107 310
q-20 15 -40 15q-39 0 -59 -34q-8 -13 -8 -39v-252z" />
    <glyph glyph-name="Ugrave" unicode="&#xd9;" horiz-adv-x="413" 
d="M361 667v-510q0 -50 -22 -87q-47 -76 -133 -76q-42 0 -79 21.5t-57 57.5q-19 37 -19 84v510h95v-510q0 -34 20 -53q16 -15 40 -15q28 0 44 18.5t16 49.5v510h95zM206 837l52 -117h-79l-75 117h102z" />
    <glyph glyph-name="Uacute" unicode="&#xda;" horiz-adv-x="413" 
d="M361 667v-510q0 -50 -22 -87q-47 -76 -133 -76q-42 0 -79 21.5t-57 57.5q-19 37 -19 84v510h95v-510q0 -34 20 -53q16 -15 40 -15q28 0 44 18.5t16 49.5v510h95zM209 837h102l-74 -117h-79z" />
    <glyph glyph-name="Ucircumflex" unicode="&#xdb;" horiz-adv-x="413" 
d="M361 667v-510q0 -50 -22 -87q-47 -76 -133 -76q-42 0 -79 21.5t-57 57.5q-19 37 -19 84v510h95v-510q0 -34 20 -53q16 -15 40 -15q28 0 44 18.5t16 49.5v510h95zM327 720h-86l-36 60l-42 -60h-79l82 117h82z" />
    <glyph glyph-name="Udieresis" unicode="&#xdc;" horiz-adv-x="413" 
d="M361 667v-510q0 -50 -22 -87q-47 -76 -133 -76q-42 0 -79 21.5t-57 57.5q-19 37 -19 84v510h95v-510q0 -34 20 -53q16 -15 40 -15q28 0 44 18.5t16 49.5v510h95zM175 811v-95h-94v95h94zM331 811v-95h-94v95h94z" />
    <glyph glyph-name="Yacute" unicode="&#xdd;" horiz-adv-x="343" 
d="M220 287v-287h-95v287l-129 380h100l77 -261l78 261h100zM175 837h101l-74 -117h-79z" />
    <glyph glyph-name="Thorn" unicode="&#xde;" horiz-adv-x="377" 
d="M147 156v-156h-95v667h95v-107h61q60 -1 104 -41.5t49 -101.5v-96q4 -72 -44.5 -120.5t-120.5 -44.5h-49zM147 246h50q37 -1 57.5 19.5t17.5 55.5v87q2 26 -18.5 45t-48.5 18h-58v-225z" />
    <glyph glyph-name="germandbls" unicode="&#xdf;" horiz-adv-x="368" 
d="M43 0v518q0 52 20 86q42 69 123 69q58 0 100.5 -40.5t42.5 -95.5v-61q2 -59 -53 -87q54 -35 53 -95v-176q3 -50 -28 -83.5t-82 -34.5h-21v90h8q36 1 33 39v187q0 17 -9 24t-32 7v83h6q17 -1 26.5 8t8.5 25v64q0 23 -14 37t-38 14q-49 0 -49 -60v-518h-95z" />
    <glyph glyph-name="agrave" unicode="&#xe0;" horiz-adv-x="361" 
d="M224 0v48q-33 -54 -90 -54q-58 0 -88 51q-13 23 -13 64v54q0 56 39.5 92t97.5 32h54v41q0 27 -9 39q-15 20 -38 20q-19 0 -32.5 -12.5t-15.5 -33.5h-96q2 60 43 100.5t101 40.5q58 0 100 -41.5t42 -99.5v-341h-95zM224 209h-36q-30 0 -43.5 -10.5t-15.5 -34.5v-23
q0 -24 13 -38t36 -14q22 0 36 17q7 9 8.5 17.5t1.5 39.5v46zM180 680l52 -117h-79l-75 117h102z" />
    <glyph glyph-name="aacute" unicode="&#xe1;" horiz-adv-x="361" 
d="M224 0v48q-33 -54 -90 -54q-58 0 -88 51q-13 23 -13 64v54q0 56 39.5 92t97.5 32h54v41q0 27 -9 39q-15 20 -38 20q-19 0 -32.5 -12.5t-15.5 -33.5h-96q2 60 43 100.5t101 40.5q58 0 100 -41.5t42 -99.5v-341h-95zM224 209h-36q-30 0 -43.5 -10.5t-15.5 -34.5v-23
q0 -24 13 -38t36 -14q22 0 36 17q7 9 8.5 17.5t1.5 39.5v46zM183 680h102l-74 -117h-79z" />
    <glyph glyph-name="acircumflex" unicode="&#xe2;" horiz-adv-x="361" 
d="M224 0v48q-33 -54 -90 -54q-58 0 -88 51q-13 23 -13 64v54q0 56 39.5 92t97.5 32h54v41q0 27 -9 39q-15 20 -38 20q-19 0 -32.5 -12.5t-15.5 -33.5h-96q2 60 43 100.5t101 40.5q58 0 100 -41.5t42 -99.5v-341h-95zM224 209h-36q-30 0 -43.5 -10.5t-15.5 -34.5v-23
q0 -24 13 -38t36 -14q22 0 36 17q7 9 8.5 17.5t1.5 39.5v46zM302 560h-86l-36 60l-43 -60h-79l82 117h83z" />
    <glyph glyph-name="atilde" unicode="&#xe3;" horiz-adv-x="361" 
d="M224 0v48q-33 -54 -90 -54q-58 0 -88 51q-13 23 -13 64v54q0 56 39.5 92t97.5 32h54v41q0 27 -9 39q-15 20 -38 20q-19 0 -32.5 -12.5t-15.5 -33.5h-96q2 60 43 100.5t101 40.5q58 0 100 -41.5t42 -99.5v-341h-95zM224 209h-36q-30 0 -43.5 -10.5t-15.5 -34.5v-23
q0 -24 13 -38t36 -14q22 0 36 17q7 9 8.5 17.5t1.5 39.5v46zM244 670h62q-1 -37 -10 -57q-20 -41 -66 -41q-17 0 -47 10t-41 10q-17 0 -22 -23h-66q4 100 76 100q21 0 72 -18q14 -4 21 -4q19 0 21 23z" />
    <glyph glyph-name="adieresis" unicode="&#xe4;" horiz-adv-x="361" 
d="M224 0v48q-33 -54 -90 -54q-58 0 -88 51q-13 23 -13 64v54q0 56 39.5 92t97.5 32h54v41q0 27 -9 39q-15 20 -38 20q-19 0 -32.5 -12.5t-15.5 -33.5h-96q2 60 43 100.5t101 40.5q58 0 100 -41.5t42 -99.5v-341h-95zM224 209h-36q-30 0 -43.5 -10.5t-15.5 -34.5v-23
q0 -24 13 -38t36 -14q22 0 36 17q7 9 8.5 17.5t1.5 39.5v46zM155 667v-92h-94v92h94zM299 667v-92h-94v92h94z" />
    <glyph glyph-name="aring" unicode="&#xe5;" horiz-adv-x="361" 
d="M224 0v48q-33 -54 -90 -54q-58 0 -88 51q-13 23 -13 64v54q0 56 39.5 92t97.5 32h54v41q0 27 -9 39q-15 20 -38 20q-19 0 -32.5 -12.5t-15.5 -33.5h-96q2 60 43 100.5t101 40.5q58 0 100 -41.5t42 -99.5v-341h-95zM224 209h-36q-30 0 -43.5 -10.5t-15.5 -34.5v-23
q0 -24 13 -38t36 -14q22 0 36 17q7 9 8.5 17.5t1.5 39.5v46zM180 719q34 0 58 -23.5t24 -58.5q0 -34 -24 -57.5t-58 -23.5t-58 24t-24 58t24 57.5t58 23.5zM181 664q-12 0 -20 -8t-8 -19t8.5 -19t19.5 -8t19 8t8 19t-8 19t-19 8z" />
    <glyph glyph-name="ae" unicode="&#xe6;" horiz-adv-x="542" 
d="M129 341h-96q1 60 42.5 100.5t100.5 40.5q55 0 96 -41q43 41 97 41q59 0 99.5 -42.5t40.5 -104.5v-131h-190v-49q0 -27 2 -34t11 -17q12 -15 34 -15q42 0 48 49h95q0 -62 -43 -103t-107 -41q-75 0 -100 54q-47 -54 -111 -54q-72 0 -101 48q-14 25 -14 67v54q0 56 39 91.5
t98 32.5h54v41q0 27 -9 39q-15 20 -38 20q-19 0 -32.5 -12.5t-15.5 -33.5zM224 209h-36q-30 0 -43.5 -10.5t-15.5 -34.5v-24q0 -23 13.5 -37t35.5 -14t36 17q7 8 8.5 17t1.5 40v46zM414 281v48q0 27 -12.5 42.5t-34.5 15.5q-28 0 -42 -24q-6 -10 -6 -34v-48h95z" />
    <glyph glyph-name="ccedilla" unicode="&#xe7;" horiz-adv-x="343" 
d="M194 -5l-8 -42q9 3 15 3q26 0 43.5 -18t17.5 -46q0 -34 -23.5 -56.5t-59.5 -22.5q-33 0 -70 19l9 42q28 -17 53 -17q12 0 20 9t8 22q0 28 -26 28q-11 0 -25 -7l-14 20l16 69q-54 14 -84 54t-28 95v186q0 62 42 105.5t102 43.5q50 0 89 -32.5t49 -81.5q3 -12 3 -35h-95
q0 24 -13 39t-34 15q-22 0 -35 -14.5t-13 -39.5v-186q0 -57 47 -57q22 0 35 14.5t13 38.5h95q2 -56 -35 -99t-94 -49z" />
    <glyph glyph-name="egrave" unicode="&#xe8;" horiz-adv-x="353" 
d="M130 204v-49q0 -27 2 -34t11 -17q12 -15 34 -15q42 0 48 49h95q0 -59 -41.5 -101.5t-100.5 -42.5q-39 0 -73 20.5t-52 54.5q-18 31 -18 86v180q0 61 42 104t101 43q61 0 101.5 -42t40.5 -105v-131h-190zM225 281v48q0 58 -47 58q-29 0 -42 -24q-6 -10 -6 -34v-48h95z
M177 680l51 -117h-79l-74 117h102z" />
    <glyph glyph-name="eacute" unicode="&#xe9;" horiz-adv-x="353" 
d="M130 204v-49q0 -27 2 -34t11 -17q12 -15 34 -15q42 0 48 49h95q0 -59 -41.5 -101.5t-100.5 -42.5q-39 0 -73 20.5t-52 54.5q-18 31 -18 86v180q0 61 42 104t101 43q61 0 101.5 -42t40.5 -105v-131h-190zM225 281v48q0 58 -47 58q-29 0 -42 -24q-6 -10 -6 -34v-48h95z
M180 680h102l-75 -117h-79z" />
    <glyph glyph-name="ecircumflex" unicode="&#xea;" horiz-adv-x="353" 
d="M130 204v-49q0 -27 2 -34t11 -17q12 -15 34 -15q42 0 48 49h95q0 -59 -41.5 -101.5t-100.5 -42.5q-39 0 -73 20.5t-52 54.5q-18 31 -18 86v180q0 61 42 104t101 43q61 0 101.5 -42t40.5 -105v-131h-190zM225 281v48q0 58 -47 58q-29 0 -42 -24q-6 -10 -6 -34v-48h95z
M298 560h-86l-36 60l-42 -60h-79l82 117h83z" />
    <glyph glyph-name="edieresis" unicode="&#xeb;" horiz-adv-x="353" 
d="M130 204v-49q0 -27 2 -34t11 -17q12 -15 34 -15q42 0 48 49h95q0 -59 -41.5 -101.5t-100.5 -42.5q-39 0 -73 20.5t-52 54.5q-18 31 -18 86v180q0 61 42 104t101 43q61 0 101.5 -42t40.5 -105v-131h-190zM225 281v48q0 58 -47 58q-29 0 -42 -24q-6 -10 -6 -34v-48h95z
M152 667v-92h-94v92h94zM296 667v-92h-94v92h94z" />
    <glyph glyph-name="igrave" unicode="&#xec;" horiz-adv-x="181" 
d="M137 476v-476h-95v476h95zM77 680l51 -117h-79l-74 117h102z" />
    <glyph glyph-name="iacute" unicode="&#xed;" horiz-adv-x="181" 
d="M138 476v-476h-95v476h95zM101 680h101l-74 -117h-79z" />
    <glyph glyph-name="icircumflex" unicode="&#xee;" horiz-adv-x="181" 
d="M138 476v-476h-95v476h95zM212 560h-86l-36 60l-42 -60h-79l82 117h83z" />
    <glyph glyph-name="idieresis" unicode="&#xef;" horiz-adv-x="181" 
d="M137 476v-476h-95v476h95zM75 667v-92h-74v92h74zM179 667v-92h-74v92h74z" />
    <glyph glyph-name="eth" unicode="&#xf0;" horiz-adv-x="355" 
d="M221 645l53 21l29 -76l-54 -21l57 -152q15 -42 14 -75v-196q0 -65 -41 -108.5t-103 -43.5q-61 0 -101.5 43.5t-40.5 108.5v218q0 59 31 87q33 31 76 31q18 0 39 -7l-22 59l-52 -20l-29 76l51 20l-22 57h107zM225 146v190q0 22 -13.5 36t-34.5 14t-34 -14t-13 -36v-190
q0 -26 13 -41t35 -15q26 0 41 22q6 10 6 34z" />
    <glyph glyph-name="ntilde" unicode="&#xf1;" horiz-adv-x="371" 
d="M138 476v-46q31 52 89 52t87 -49q14 -22 14 -63v-370h-95v335q0 52 -46 52q-22 0 -35.5 -14.5t-13.5 -37.5v-335h-95v476h95zM260 670h62q-3 -40 -11 -57q-18 -41 -65 -41q-18 0 -47 10q-30 10 -41 10q-18 0 -22 -23h-67q6 100 77 100q20 0 72 -18q14 -4 20 -4
q19 0 22 23z" />
    <glyph glyph-name="ograve" unicode="&#xf2;" horiz-adv-x="355" 
d="M35 146v190q0 62 41.5 104t102.5 42t101 -41.5t40 -104.5v-190q0 -65 -41 -108.5t-102 -43.5t-101.5 43.5t-40.5 108.5zM225 146v190q0 23 -13 37t-35 14q-21 0 -34 -14t-13 -37v-190q0 -25 13 -40.5t35 -15.5q27 0 41 22q6 10 6 34zM178 680l51 -117h-79l-74 117h102z
" />
    <glyph glyph-name="oacute" unicode="&#xf3;" horiz-adv-x="355" 
d="M35 146v190q0 62 41.5 104t102.5 42t101 -41.5t40 -104.5v-190q0 -65 -41 -108.5t-102 -43.5t-101.5 43.5t-40.5 108.5zM225 146v190q0 23 -13 37t-35 14q-21 0 -34 -14t-13 -37v-190q0 -25 13 -40.5t35 -15.5q27 0 41 22q6 10 6 34zM181 680h102l-75 -117h-79z" />
    <glyph glyph-name="ocircumflex" unicode="&#xf4;" horiz-adv-x="355" 
d="M35 146v190q0 62 41.5 104t102.5 42t101 -41.5t40 -104.5v-190q0 -65 -41 -108.5t-102 -43.5t-101.5 43.5t-40.5 108.5zM225 146v190q0 23 -13 37t-35 14q-21 0 -34 -14t-13 -37v-190q0 -25 13 -40.5t35 -15.5q27 0 41 22q6 10 6 34zM299 560h-86l-36 60l-42 -60h-79
l82 117h83z" />
    <glyph glyph-name="otilde" unicode="&#xf5;" horiz-adv-x="355" 
d="M35 146v190q0 62 41.5 104t102.5 42t101 -41.5t40 -104.5v-190q0 -65 -41 -108.5t-102 -43.5t-101.5 43.5t-40.5 108.5zM225 146v190q0 23 -13 37t-35 14q-21 0 -34 -14t-13 -37v-190q0 -25 13 -40.5t35 -15.5q27 0 41 22q6 10 6 34zM242 670h62q-3 -40 -11 -57
q-18 -41 -65 -41q-18 0 -47 10q-30 10 -41 10q-18 0 -22 -23h-67q6 100 77 100q20 0 72 -18q14 -4 20 -4q19 0 22 23z" />
    <glyph glyph-name="odieresis" unicode="&#xf6;" horiz-adv-x="355" 
d="M35 146v190q0 62 41.5 104t102.5 42t101 -41.5t40 -104.5v-190q0 -65 -41 -108.5t-102 -43.5t-101.5 43.5t-40.5 108.5zM225 146v190q0 23 -13 37t-35 14q-21 0 -34 -14t-13 -37v-190q0 -25 13 -40.5t35 -15.5q27 0 41 22q6 10 6 34zM153 667v-92h-94v92h94zM297 667v-92
h-94v92h94z" />
    <glyph glyph-name="divide" unicode="&#xf7;" 
d="M357 358v-86h-329v86h329zM240 495v-95h-95v95h95zM240 228v-95h-95v95h95z" />
    <glyph glyph-name="oslash" unicode="&#xf8;" horiz-adv-x="365" 
d="M236 473l17 43l63 -25l-21 -56q35 -40 35 -99v-190q0 -67 -41.5 -109.5t-107.5 -42.5q-28 0 -52 9l-17 -43l-63 25l22 58q-36 40 -36 103v190q0 64 42 105t108 41q27 0 51 -9zM130 173l75 210q-22 4 -26 4q-22 0 -35.5 -14t-13.5 -37v-163zM235 303l-75 -210q15 -4 23 -4
q31 0 46 21q6 10 6 36v157z" />
    <glyph glyph-name="ugrave" unicode="&#xf9;" horiz-adv-x="371" 
d="M328 476v-476h-95v48q-35 -54 -88 -54q-60 0 -90 53q-12 24 -12 71v358h95v-322q0 -30 6 -41q11 -24 41 -24q28 0 41 24q7 12 7 41v322h95zM186 680l51 -117h-79l-74 117h102z" />
    <glyph glyph-name="uacute" unicode="&#xfa;" horiz-adv-x="371" 
d="M328 476v-476h-95v48q-35 -54 -88 -54q-60 0 -90 53q-12 24 -12 71v358h95v-322q0 -30 6 -41q11 -24 41 -24q28 0 41 24q7 12 7 41v322h95zM189 680h102l-75 -117h-79z" />
    <glyph glyph-name="ucircumflex" unicode="&#xfb;" horiz-adv-x="371" 
d="M328 476v-476h-95v48q-35 -54 -88 -54q-60 0 -90 53q-12 24 -12 71v358h95v-322q0 -30 6 -41q11 -24 41 -24q28 0 41 24q7 12 7 41v322h95zM307 560h-86l-36 60l-42 -60h-79l82 117h83z" />
    <glyph glyph-name="udieresis" unicode="&#xfc;" horiz-adv-x="371" 
d="M328 476v-476h-95v48q-35 -54 -88 -54q-60 0 -90 53q-12 24 -12 71v358h95v-322q0 -30 6 -41q11 -24 41 -24q28 0 41 24q7 12 7 41v322h95zM161 667v-92h-94v92h94zM305 667v-92h-94v92h94z" />
    <glyph glyph-name="yacute" unicode="&#xfd;" horiz-adv-x="329" 
d="M330 476l-137 -557q-11 -53 -48 -82t-89 -28h-22v90h20q26 1 39 13.5t19 41.5l17 65l-132 457h101l66 -296l65 296h101zM181 680h102l-74 -117h-79z" />
    <glyph glyph-name="thorn" unicode="&#xfe;" horiz-adv-x="367" 
d="M138 47v-238h-95v858h95v-238q34 53 90 53q44 0 72.5 -30t28.5 -76v-274q0 -36 -15 -61q-30 -47 -85 -47q-59 0 -91 53zM234 148v186q0 24 -13 38.5t-35 14.5q-21 0 -34.5 -15t-13.5 -38v-186q0 -59 48 -59q30 0 43 25q5 8 5 34z" />
    <glyph glyph-name="ydieresis" unicode="&#xff;" horiz-adv-x="329" 
d="M330 476l-137 -557q-11 -53 -48 -82t-89 -28h-22v90h20q26 1 39 13.5t19 41.5l17 65l-132 457h101l66 -296l65 296h101zM140 667v-92h-94v92h94zM284 667v-92h-94v92h94z" />
    <glyph glyph-name="Amacron" unicode="&#x100;" horiz-adv-x="379" 
d="M129 143l-27 -143h-101l149 667h83l149 -667h-102l-27 143h-124zM236 232l-45 243l-45 -243h90zM304 813v-77h-227v77h227z" />
    <glyph glyph-name="amacron" unicode="&#x101;" horiz-adv-x="361" 
d="M224 0v48q-33 -54 -90 -54q-58 0 -88 51q-13 23 -13 64v54q0 56 39.5 92t97.5 32h54v41q0 27 -9 39q-15 20 -38 20q-19 0 -32.5 -12.5t-15.5 -33.5h-96q2 60 43 100.5t101 40.5q58 0 100 -41.5t42 -99.5v-341h-95zM224 209h-36q-30 0 -43.5 -10.5t-15.5 -34.5v-23
q0 -24 13 -38t36 -14q22 0 36 17q7 9 8.5 17.5t1.5 39.5v46zM294 665v-77h-227v77h227z" />
    <glyph glyph-name="Abreve" unicode="&#x102;" horiz-adv-x="379" 
d="M129 143l-27 -143h-101l149 667h83l149 -667h-102l-27 143h-124zM236 232l-45 243l-45 -243h90zM65 830h72q17 -42 54 -42q36 0 52 42h72q-11 -52 -44.5 -82t-80.5 -30q-48 0 -80.5 29.5t-44.5 82.5z" />
    <glyph glyph-name="abreve" unicode="&#x103;" horiz-adv-x="361" 
d="M224 0v48q-33 -54 -90 -54q-58 0 -88 51q-13 23 -13 64v54q0 56 39.5 92t97.5 32h54v41q0 27 -9 39q-15 20 -38 20q-19 0 -32.5 -12.5t-15.5 -33.5h-96q2 60 43 100.5t101 40.5q58 0 100 -41.5t42 -99.5v-341h-95zM224 209h-36q-30 0 -43.5 -10.5t-15.5 -34.5v-23
q0 -24 13 -38t36 -14q22 0 36 17q7 9 8.5 17.5t1.5 39.5v46zM55 681h72q17 -42 54 -42q35 0 52 42h72q-11 -53 -44 -82.5t-81 -29.5q-47 0 -80 29.5t-45 82.5z" />
    <glyph glyph-name="Aogonek" unicode="&#x104;" horiz-adv-x="379" 
d="M233 667l149 -667q-49 -41 -49 -85q0 -35 29 -35q12 0 32 5v-51q-19 -11 -44 -11q-37 0 -60.5 23.5t-23.5 60.5q0 60 59 93h-45l-27 143h-124l-27 -143h-101l149 667h83zM236 232l-45 243l-45 -243h90z" />
    <glyph glyph-name="aogonek" unicode="&#x105;" horiz-adv-x="361" 
d="M319 341v-341q-50 -42 -50 -85q0 -35 30 -35q12 0 32 5v-51q-19 -11 -44 -11q-37 0 -60.5 23.5t-23.5 60.5q0 61 60 93h-39v48q-33 -54 -90 -54q-58 0 -88 51q-13 23 -13 64v54q0 56 39.5 92t97.5 32h54v41q0 27 -9 39q-15 20 -38 20q-19 0 -32.5 -12.5t-15.5 -33.5h-96
q2 60 43 100.5t101 40.5q58 0 100 -41.5t42 -99.5zM224 209h-36q-30 0 -43.5 -10.5t-15.5 -34.5v-23q0 -24 13 -38t36 -14q22 0 36 17q7 9 8.5 17.5t1.5 39.5v46z" />
    <glyph glyph-name="Cacute" unicode="&#x106;" horiz-adv-x="385" 
d="M259 190h95v-23q0 -60 -21 -97q-20 -34 -56.5 -55t-76.5 -21t-76.5 20.5t-56.5 54.5q-22 36 -22 98v344q0 70 44 116t111 46q66 0 110 -46.5t44 -115.5v-35h-95v35q0 31 -15.5 48.5t-43.5 17.5q-27 0 -43.5 -18t-16.5 -48v-344q0 -30 2.5 -39t13.5 -20q16 -18 43 -18
q34 0 53 29q7 12 7 48v23zM202 837h102l-74 -117h-79z" />
    <glyph glyph-name="cacute" unicode="&#x107;" horiz-adv-x="343" 
d="M225 143h95q1 -63 -40.5 -106t-102.5 -43q-33 0 -65 16.5t-51 44.5q-26 36 -26 92v186q0 62 42 105.5t102 43.5q50 0 89 -32.5t49 -81.5q3 -12 3 -35h-95q0 24 -13 39t-34 15q-22 0 -35 -14.5t-13 -39.5v-186q0 -57 47 -57q22 0 35 14.5t13 38.5zM175 680h102l-74 -117
h-79z" />
    <glyph glyph-name="cdotaccent" unicode="&#x10b;" horiz-adv-x="343" 
d="M225 143h95q1 -63 -40.5 -106t-102.5 -43q-33 0 -65 16.5t-51 44.5q-26 36 -26 92v186q0 62 42 105.5t102 43.5q50 0 89 -32.5t49 -81.5q3 -12 3 -35h-95q0 24 -13 39t-34 15q-22 0 -35 -14.5t-13 -39.5v-186q0 -57 47 -57q22 0 35 14.5t13 38.5zM219 667v-92h-94v92h94z
" />
    <glyph glyph-name="Ccaron" unicode="&#x10c;" horiz-adv-x="385" 
d="M259 190h95v-23q0 -60 -21 -97q-20 -34 -56.5 -55t-76.5 -21t-76.5 20.5t-56.5 54.5q-22 36 -22 98v344q0 70 44 116t111 46q66 0 110 -46.5t44 -115.5v-35h-95v35q0 31 -15.5 48.5t-43.5 17.5q-27 0 -43.5 -18t-16.5 -48v-344q0 -30 2.5 -39t13.5 -20q16 -18 43 -18
q34 0 53 29q7 12 7 48v23zM77 837h85l37 -60l42 60h79l-82 -117h-83z" />
    <glyph glyph-name="ccaron" unicode="&#x10d;" horiz-adv-x="343" 
d="M225 143h95q1 -63 -40.5 -106t-102.5 -43q-33 0 -65 16.5t-51 44.5q-26 36 -26 92v186q0 62 42 105.5t102 43.5q50 0 89 -32.5t49 -81.5q3 -12 3 -35h-95q0 24 -13 39t-34 15q-22 0 -35 -14.5t-13 -39.5v-186q0 -57 47 -57q22 0 35 14.5t13 38.5zM50 677h86l36 -60l43 60
h79l-82 -117h-83z" />
    <glyph glyph-name="Dcaron" unicode="&#x10e;" horiz-adv-x="405" 
d="M52 0v667h151q66 0 112 -45t45 -109v-348q1 -72 -45.5 -119.5t-114.5 -45.5h-148zM147 89h47q35 -1 53.5 18.5t17.5 57.5v348q0 28 -20.5 47.5t-48.5 17.5h-49v-489zM67 837h85l37 -60l42 60h79l-82 -117h-83z" />
    <glyph glyph-name="dcaron" unicode="&#x10f;" horiz-adv-x="448" 
d="M323 667v-667h-95v49q-33 -55 -90 -55q-48 0 -79 39q-13 17 -17 33.5t-4 55.5v257q0 44 29 73.5t72 29.5q59 0 89 -51v236h95zM228 153v171q0 33 -11 45q-13 18 -37 18q-30 0 -42 -25q-5 -9 -5 -38v-171q0 -35 12 -48q14 -16 36 -16q19 0 32 13q10 9 12.5 17.5t2.5 33.5z
M448 667v-96l-81 -71v167h81z" />
    <glyph glyph-name="Dcroat" unicode="&#x110;" horiz-adv-x="405" 
d="M52 291h-42v89h42v287h150q67 0 113 -45t45 -110v-347q1 -72 -45.5 -119.5t-114.5 -45.5h-148v291zM147 291v-202h46q36 -1 54.5 18.5t17.5 57.5v347q-1 29 -21 48t-48 18h-49v-198h58v-89h-58z" />
    <glyph glyph-name="dcroat" unicode="&#x111;" horiz-adv-x="366" 
d="M323 604h43v-77h-43v-527h-95v49q-33 -55 -90 -55q-48 0 -79 39q-13 17 -17 33.5t-4 55.5v257q0 44 29 73.5t72 29.5q59 0 89 -51v96h-81v77h81v63h95v-63zM228 153v171q0 33 -11 45q-13 18 -37 18q-30 0 -42 -25q-5 -10 -5 -38v-171q0 -35 12 -48q13 -16 35 -16
q20 0 33 13q10 9 12.5 17.5t2.5 33.5z" />
    <glyph glyph-name="Emacron" unicode="&#x112;" horiz-adv-x="373" 
d="M147 293v-198h190v-95h-285v667h285v-89h-190v-196h167v-89h-167zM307 813v-77h-227v77h227z" />
    <glyph glyph-name="emacron" unicode="&#x113;" horiz-adv-x="353" 
d="M130 204v-49q0 -27 2 -34t11 -17q12 -15 34 -15q42 0 48 49h95q0 -59 -41.5 -101.5t-100.5 -42.5q-39 0 -73 20.5t-52 54.5q-18 31 -18 86v180q0 61 42 104t101 43q61 0 101.5 -42t40.5 -105v-131h-190zM225 281v48q0 58 -47 58q-29 0 -42 -24q-6 -10 -6 -34v-48h95z
M290 665v-77h-227v77h227z" />
    <glyph glyph-name="Ebreve" unicode="&#x114;" horiz-adv-x="373" 
d="M147 293v-198h190v-95h-285v667h285v-89h-190v-196h167v-89h-167zM68 830h73q16 -42 54 -42q35 0 51 42h72q-10 -52 -43.5 -82t-81.5 -30q-47 0 -80 29.5t-45 82.5z" />
    <glyph glyph-name="ebreve" unicode="&#x115;" horiz-adv-x="353" 
d="M130 204v-49q0 -27 2 -34t11 -17q12 -15 34 -15q42 0 48 49h95q0 -59 -41.5 -101.5t-100.5 -42.5q-39 0 -73 20.5t-52 54.5q-18 31 -18 86v180q0 61 42 104t101 43q61 0 101.5 -42t40.5 -105v-131h-190zM225 281v48q0 58 -47 58q-29 0 -42 -24q-6 -10 -6 -34v-48h95z
M52 681h72q16 -42 54 -42q34 0 51 42h73q-11 -52 -44.5 -82t-80.5 -30q-48 0 -81 29.5t-44 82.5z" />
    <glyph glyph-name="Edotaccent" unicode="&#x116;" horiz-adv-x="373" 
d="M147 293v-198h190v-95h-285v667h285v-89h-190v-196h167v-89h-167zM240 811v-95h-94v95h94z" />
    <glyph glyph-name="edotaccent" unicode="&#x117;" horiz-adv-x="353" 
d="M130 204v-49q0 -27 2 -34t11 -17q12 -15 34 -15q42 0 48 49h95q0 -59 -41.5 -101.5t-100.5 -42.5q-39 0 -73 20.5t-52 54.5q-18 31 -18 86v180q0 61 42 104t101 43q61 0 101.5 -42t40.5 -105v-131h-190zM225 281v48q0 58 -47 58q-29 0 -42 -24q-6 -10 -6 -34v-48h95z
M223 667v-92h-94v92h94z" />
    <glyph glyph-name="Eogonek" unicode="&#x118;" horiz-adv-x="373" 
d="M337 95v-95q-49 -42 -49 -85q0 -35 30 -35q11 0 31 5v-51q-19 -11 -43 -11q-37 0 -61 23.5t-24 60.5q0 60 60 93h-229v667h285v-89h-190v-196h167v-89h-167v-198h190z" />
    <glyph glyph-name="eogonek" unicode="&#x119;" horiz-adv-x="353" 
d="M230 138h95q1 -74 -74 -129q-47 -37 -47 -80q0 -36 30 -36q16 0 31 6v-51q-19 -12 -43 -12q-37 0 -61 23.5t-24 60.5q0 41 34 74q-62 8 -98.5 52.5t-32.5 108.5v180q0 61 42 104t101 43q61 0 101.5 -42t40.5 -105v-131h-190v-49q0 -27 2 -34t11 -17q12 -15 34 -15
q42 0 48 49zM230 281v48q0 58 -47 58q-29 0 -42 -24q-6 -10 -6 -34v-48h95z" />
    <glyph glyph-name="Ecaron" unicode="&#x11a;" horiz-adv-x="373" 
d="M147 293v-198h190v-95h-285v667h285v-89h-190v-196h167v-89h-167zM71 837h86l36 -60l42 60h79l-82 -117h-83z" />
    <glyph glyph-name="ecaron" unicode="&#x11b;" horiz-adv-x="353" 
d="M130 204v-49q0 -27 2 -34t11 -17q12 -15 34 -15q42 0 48 49h95q0 -59 -41.5 -101.5t-100.5 -42.5q-39 0 -73 20.5t-52 54.5q-18 31 -18 86v180q0 61 42 104t101 43q61 0 101.5 -42t40.5 -105v-131h-190zM225 281v48q0 58 -47 58q-29 0 -42 -24q-6 -10 -6 -34v-48h95z
M55 677h86l36 -60l42 60h79l-82 -117h-82z" />
    <glyph glyph-name="Gbreve" unicode="&#x11e;" horiz-adv-x="408" 
d="M366 370v-200q0 -62 -23 -100q-22 -36 -58 -56t-77 -20q-39 0 -75 17.5t-58 48.5q-30 40 -30 110v334q0 74 45 121.5t115 47.5q88 0 135 -72q26 -38 26 -97v-28h-95v28q0 28 -7 40q-19 34 -58 34q-30 0 -48 -20t-18 -54v-334q0 -33 6 -44q18 -36 60 -36q23 0 41 15
q14 12 19 25t5 40v117h-77v83h172zM79 830h73q16 -42 54 -42q34 0 51 42h72q-10 -52 -43.5 -82t-81.5 -30q-47 0 -80 29.5t-45 82.5z" />
    <glyph glyph-name="gbreve" unicode="&#x11f;" horiz-adv-x="363" 
d="M321 476v-517q0 -58 -21 -91q-43 -65 -122 -65q-60 0 -101.5 42t-41.5 103h95q5 -49 48 -49q25 0 39 20q9 13 9 40v90q-32 -55 -91 -55q-26 0 -50 14.5t-38 37.5q-8 15 -10 25.5t-2 41.5v265q0 46 28.5 75t72.5 29q55 0 90 -51v45h95zM226 149v181q0 59 -48 59
q-18 0 -33 -13q-15 -15 -15 -46v-181q0 -25 6 -36q14 -24 43 -24q47 0 47 60zM50 681h73q16 -42 54 -42q35 0 51 42h72q-10 -52 -43.5 -82t-81.5 -30q-47 0 -80 29.5t-45 82.5z" />
    <glyph glyph-name="Gcommaaccent" unicode="&#x122;" horiz-adv-x="408" 
d="M366 370v-200q0 -62 -23 -100q-22 -36 -58 -56t-77 -20q-39 0 -75 17.5t-58 48.5q-30 40 -30 110v334q0 74 45 121.5t115 47.5q88 0 135 -72q26 -38 26 -97v-28h-95v28q0 28 -7 40q-19 34 -58 34q-30 0 -48 -20t-18 -54v-334q0 -33 6 -44q18 -36 60 -36q23 0 41 15
q14 12 19 25t5 40v117h-77v83h172zM246 -53v-95l-81 -71v166h81z" />
    <glyph glyph-name="gcommaaccent" unicode="&#x123;" horiz-adv-x="363" 
d="M321 476v-517q0 -58 -21 -91q-43 -65 -122 -65q-60 0 -101.5 42t-41.5 103h95q5 -49 48 -49q25 0 39 20q9 13 9 40v90q-32 -55 -91 -55q-26 0 -50 14.5t-38 37.5q-8 15 -10 25.5t-2 41.5v265q0 46 28.5 75t72.5 29q55 0 90 -51v45h95zM226 149v181q0 59 -48 59
q-18 0 -33 -13q-15 -15 -15 -46v-181q0 -25 6 -36q14 -24 43 -24q47 0 47 60zM126 521v95l81 71v-166h-81z" />
    <glyph glyph-name="Imacron" unicode="&#x12a;" horiz-adv-x="199" 
d="M147 667v-667h-95v667h95zM190 813v-77h-180v77h180z" />
    <glyph glyph-name="imacron" unicode="&#x12b;" horiz-adv-x="181" 
d="M138 476v-476h-95v476h95zM177 665v-77h-173v77h173z" />
    <glyph glyph-name="Iogonek" unicode="&#x12e;" horiz-adv-x="199" 
d="M148 667v-667q-49 -41 -49 -85q0 -35 30 -35q11 0 31 5v-51q-19 -11 -44 -11q-37 0 -60.5 23.5t-23.5 60.5q0 59 59 93h-39v667h96z" />
    <glyph glyph-name="iogonek" unicode="&#x12f;" horiz-adv-x="181" 
d="M138 476v-476q-49 -41 -49 -85q0 -35 30 -35q11 0 31 5v-51q-19 -11 -44 -11q-37 0 -60.5 23.5t-23.5 60.5q0 60 59 93h-39v476h96zM137 667v-93h-95v93h95z" />
    <glyph glyph-name="Idotaccent" unicode="&#x130;" horiz-adv-x="199" 
d="M147 667v-667h-95v667h95zM147 811v-95h-94v95h94z" />
    <glyph glyph-name="dotlessi" unicode="&#x131;" horiz-adv-x="181" 
d="M138 476v-476h-95v476h95z" />
    <glyph glyph-name="Kcommaaccent" unicode="&#x136;" horiz-adv-x="422" 
d="M255 401l153 -401h-101l-107 298l-53 -99v-199h-95v667h95v-307l144 307h94zM253 -53v-95l-81 -71v166h81z" />
    <glyph glyph-name="kcommaaccent" unicode="&#x137;" horiz-adv-x="380" 
d="M138 132v-132h-95v667h95v-397l119 206h96l-113 -189l136 -287h-107l-84 203zM232 -53v-95l-81 -71v166h81z" />
    <glyph glyph-name="Lacute" unicode="&#x139;" horiz-adv-x="357" 
d="M147 95h190v-95h-285v667h95v-572zM115 837h102l-74 -117h-79z" />
    <glyph glyph-name="lacute" unicode="&#x13a;" horiz-adv-x="202" 
d="M143 667v-530q-1 -26 7.5 -36t32.5 -10h7v-91h-21q-57 -1 -91 33t-30 87v547h95zM110 837h101l-74 -117h-79z" />
    <glyph glyph-name="Lcommaaccent" unicode="&#x13b;" horiz-adv-x="357" 
d="M147 95h190v-95h-285v667h95v-572zM234 -53v-95l-81 -71v166h81z" />
    <glyph glyph-name="lcommaaccent" unicode="&#x13c;" horiz-adv-x="202" 
d="M143 667v-530q-1 -26 7.5 -36t32.5 -10h7v-91h-21q-57 -1 -91 33t-30 87v547h95zM148 -53v-95l-81 -71v166h81z" />
    <glyph glyph-name="Lcaron" unicode="&#x13d;" horiz-adv-x="357" 
d="M147 95h190v-95h-285v667h95v-572zM281 667v-96l-81 -71v167h81z" />
    <glyph glyph-name="lcaron" unicode="&#x13e;" horiz-adv-x="263" 
d="M143 667v-530q-1 -26 7.5 -36t32.5 -10h7v-91h-21q-57 -1 -91 33t-30 87v547h95zM268 667v-96l-81 -71v167h81z" />
    <glyph glyph-name="Lslash" unicode="&#x141;" horiz-adv-x="357" 
d="M52 254l-43 -25v96l43 25v317h95v-279l79 46v-96l-79 -45v-198h191v-95h-286v254z" />
    <glyph glyph-name="lslash" unicode="&#x142;" horiz-adv-x="202" 
d="M137 412l49 29v-96l-49 -28v-180q-1 -26 7.5 -36t32.5 -10h7v-91h-21q-57 -1 -91 33t-30 87v152l-44 -26v96l44 25v300h95v-255z" />
    <glyph glyph-name="Nacute" unicode="&#x143;" horiz-adv-x="437" 
d="M385 667v-667h-89l-149 405v-405h-95v667h89l149 -404v404h95zM222 837h102l-75 -117h-79z" />
    <glyph glyph-name="nacute" unicode="&#x144;" horiz-adv-x="371" 
d="M138 476v-46q31 52 89 52t87 -49q14 -22 14 -63v-370h-95v335q0 52 -46 52q-22 0 -35.5 -14.5t-13.5 -37.5v-335h-95v476h95zM196 680h101l-74 -117h-79z" />
    <glyph glyph-name="Ncommaaccent" unicode="&#x145;" horiz-adv-x="437" 
d="M385 667v-667h-89l-149 405v-405h-95v667h89l149 -404v404h95zM260 -53v-95l-81 -71v166h81z" />
    <glyph glyph-name="ncommaaccent" unicode="&#x146;" horiz-adv-x="371" 
d="M138 476v-46q31 52 89 52t87 -49q14 -22 14 -63v-370h-95v335q0 52 -46 52q-22 0 -35.5 -14.5t-13.5 -37.5v-335h-95v476h95zM227 -53v-95l-81 -71v166h81z" />
    <glyph glyph-name="Ncaron" unicode="&#x147;" horiz-adv-x="437" 
d="M385 667v-667h-89l-149 405v-405h-95v667h89l149 -404v404h95zM96 837h86l36 -60l42 60h79l-82 -117h-82z" />
    <glyph glyph-name="ncaron" unicode="&#x148;" horiz-adv-x="371" 
d="M138 476v-46q31 52 89 52t87 -49q14 -22 14 -63v-370h-95v335q0 52 -46 52q-22 0 -35.5 -14.5t-13.5 -37.5v-335h-95v476h95zM77 677h86l36 -60l43 60h79l-82 -117h-83z" />
    <glyph glyph-name="Omacron" unicode="&#x14c;" horiz-adv-x="411" 
d="M366 505v-343q0 -66 -35 -109q-48 -59 -125 -59q-70 0 -115.5 47.5t-45.5 120.5v343q0 73 45.5 120.5t115.5 47.5q77 0 125 -59q35 -43 35 -109zM271 165v340q0 30 -12 46q-21 27 -52 27q-36 0 -58 -32q-9 -15 -9 -41v-340q0 -40 22 -59q20 -17 44 -17q38 0 57 34
q8 13 8 42zM319 813v-77h-227v77h227z" />
    <glyph glyph-name="omacron" unicode="&#x14d;" horiz-adv-x="355" 
d="M35 146v190q0 62 41.5 104t102.5 42t101 -41.5t40 -104.5v-190q0 -65 -41 -108.5t-102 -43.5t-101.5 43.5t-40.5 108.5zM225 146v190q0 23 -13 37t-35 14q-21 0 -34 -14t-13 -37v-190q0 -25 13 -40.5t35 -15.5q27 0 41 22q6 10 6 34zM291 665v-77h-227v77h227z" />
    <glyph glyph-name="Ohungarumlaut" unicode="&#x150;" horiz-adv-x="411" 
d="M366 505v-343q0 -66 -35 -109q-48 -59 -125 -59q-70 0 -115.5 47.5t-45.5 120.5v343q0 73 45.5 120.5t115.5 47.5q77 0 125 -59q35 -43 35 -109zM271 165v340q0 30 -12 46q-21 27 -52 27q-36 0 -58 -32q-9 -15 -9 -41v-340q0 -40 22 -59q20 -17 44 -17q38 0 57 34
q8 13 8 42zM147 837h89l-75 -117h-65zM267 837h89l-75 -117h-65z" />
    <glyph glyph-name="ohungarumlaut" unicode="&#x151;" horiz-adv-x="355" 
d="M35 146v190q0 62 41.5 104t102.5 42t101 -41.5t40 -104.5v-190q0 -65 -41 -108.5t-102 -43.5t-101.5 43.5t-40.5 108.5zM225 146v190q0 23 -13 37t-35 14q-21 0 -34 -14t-13 -37v-190q0 -25 13 -40.5t35 -15.5q27 0 41 22q6 10 6 34zM139 680h89l-75 -117h-65zM259 680
h89l-75 -117h-65z" />
    <glyph glyph-name="OE" unicode="&#x152;" horiz-adv-x="592" 
d="M366 578v-196h167v-89h-167v-198h190v-95h-238q-17 0 -25 -1l-42 -3q-24 -2 -36 -2q-77 0 -123.5 46t-46.5 122v343q0 73 45.5 120.5t116.5 47.5q9 0 29 -2q27 -3 32 -3l50 -1h238v-89h-190zM140 505v-343q0 -73 73 -73q27 0 42.5 13.5t15.5 38.5v384q0 25 -15.5 39
t-42.5 14q-73 0 -73 -73z" />
    <glyph glyph-name="oe" unicode="&#x153;" horiz-adv-x="543" 
d="M35 146v190q0 46 23 81q19 30 52 47.5t68 17.5q55 0 96 -41q39 41 95 41q60 0 100.5 -42.5t40.5 -104.5v-131h-190v-49q0 -27 2 -34t11 -17q12 -15 34 -15q42 0 48 49h95q0 -59 -41.5 -101.5t-99.5 -42.5q-55 0 -96 42q-43 -42 -97 -42q-61 0 -101 43.5t-40 108.5z
M225 146v190q0 23 -13 37t-35 14q-21 0 -34 -14t-13 -37v-190q0 -25 13 -40.5t35 -15.5q27 0 41 22q6 10 6 34zM415 281v48q0 58 -47 58q-29 0 -42 -24q-6 -10 -6 -34v-48h95z" />
    <glyph glyph-name="Racute" unicode="&#x154;" horiz-adv-x="412" 
d="M147 286v-286h-95v667h166q62 3 108.5 -44.5t46.5 -113.5v-62q5 -91 -78 -141l102 -306h-102l-89 286h-59zM147 370h66q35 -2 54.5 19.5t16.5 57.5v62q0 31 -19.5 50.5t-50.5 18.5h-67v-208zM209 837h102l-75 -117h-78z" />
    <glyph glyph-name="racute" unicode="&#x155;" horiz-adv-x="279" 
d="M138 476v-51q47 54 124 58v-99q-17 4 -29 4q-34 0 -63 -24q-18 -17 -25 -35.5t-7 -49.5v-279h-95v476h95zM157 680h101l-74 -117h-79z" />
    <glyph glyph-name="Rcommaaccent" unicode="&#x156;" horiz-adv-x="412" 
d="M147 286v-286h-95v667h166q62 3 108.5 -44.5t46.5 -113.5v-62q5 -91 -78 -141l102 -306h-102l-89 286h-59zM147 370h66q35 -2 54.5 19.5t16.5 57.5v62q0 31 -19.5 50.5t-50.5 18.5h-67v-208zM248 -53v-95l-81 -71v166h81z" />
    <glyph glyph-name="rcommaaccent" unicode="&#x157;" horiz-adv-x="279" 
d="M138 476v-51q47 54 124 58v-99q-17 4 -29 4q-34 0 -63 -24q-18 -17 -25 -35.5t-7 -49.5v-279h-95v476h95zM132 -53v-95l-81 -71v166h81z" />
    <glyph glyph-name="Rcaron" unicode="&#x158;" horiz-adv-x="412" 
d="M147 286v-286h-95v667h166q62 3 108.5 -44.5t46.5 -113.5v-62q5 -91 -78 -141l102 -306h-102l-89 286h-59zM147 370h66q35 -2 54.5 19.5t16.5 57.5v62q0 31 -19.5 50.5t-50.5 18.5h-67v-208zM83 837h86l36 -60l43 60h79l-82 -117h-83z" />
    <glyph glyph-name="rcaron" unicode="&#x159;" horiz-adv-x="279" 
d="M138 476v-51q48 54 123 58v-99q-17 4 -29 4q-33 0 -62 -24q-18 -17 -25 -35.5t-7 -49.5v-279h-95v476h95zM18 677h86l36 -60l42 60h79l-82 -117h-82z" />
    <glyph glyph-name="Sacute" unicode="&#x15a;" horiz-adv-x="387" 
d="M26 190h96v-24q0 -29 8 -44q18 -33 60 -33q40 0 60 31q9 14 9 47v46q1 38 -15 54t-77 39q-138 49 -134 170v30q0 70 47 118.5t114 48.5q68 0 114 -48.5t46 -118.5v-30h-95v30q0 33 -18 52.5t-48 19.5q-29 0 -47 -20t-18 -52v-30q0 -35 13.5 -49t68.5 -35
q79 -30 111.5 -69t32.5 -103v-54q0 -39 -6.5 -61t-25.5 -47q-49 -64 -131 -64q-88 0 -136 70q-29 41 -29 102v24zM197 837h101l-74 -117h-79z" />
    <glyph glyph-name="sacute" unicode="&#x15b;" horiz-adv-x="330" 
d="M23 137h89q0 -23 15.5 -38t38.5 -15q22 0 37 15.5t15 38.5q0 22 -11.5 34t-43.5 23l-19 7q-63 23 -85 50q-31 39 -31 89q0 59 40 100t97 41q56 0 95.5 -39.5t40.5 -97.5h-88q-1 22 -14 34.5t-33 12.5q-21 0 -34.5 -14t-13.5 -36q0 -21 11 -33t40 -22l31 -10
q49 -17 74 -45q35 -45 35 -95q0 -58 -42 -101t-99 -43q-38 0 -72.5 19.5t-53.5 50.5q-19 34 -19 74zM169 680h101l-74 -117h-79z" />
    <glyph glyph-name="scircumflex" unicode="&#x15d;" horiz-adv-x="330" 
d="M23 137h89q0 -23 15.5 -38t38.5 -15q22 0 37 15.5t15 38.5q0 22 -11.5 34t-43.5 23l-19 7q-63 23 -85 50q-31 39 -31 89q0 59 40 100t97 41q56 0 95.5 -39.5t40.5 -97.5h-88q-1 22 -14 34.5t-33 12.5q-21 0 -34.5 -14t-13.5 -36q0 -21 11 -33t40 -22l31 -10
q49 -17 74 -45q35 -45 35 -95q0 -58 -42 -101t-99 -43q-38 0 -72.5 19.5t-53.5 50.5q-19 34 -19 74zM287 560h-86l-36 60l-42 -60h-79l82 117h82z" />
    <glyph glyph-name="Scedilla" unicode="&#x15e;" horiz-adv-x="387" 
d="M217 -5l-8 -42q9 3 15 3q26 0 43.5 -18t17.5 -46q0 -34 -23.5 -56.5t-59.5 -22.5q-33 0 -71 19l10 42q29 -17 53 -17q12 0 20 8.5t8 21.5q0 28 -26 28q-10 0 -25 -6l-14 20l15 66q-64 8 -104.5 57t-37.5 114v24h96v-24q0 -29 8 -44q18 -33 60 -33q40 0 60 31q9 14 9 47
v46q1 38 -15 54t-77 39q-138 49 -134 170v30q0 70 47 118.5t114 48.5q68 0 114 -48.5t46 -118.5v-30h-95v30q0 33 -18 52.5t-48 19.5q-29 0 -47 -20t-18 -52v-30q0 -35 13.5 -49t68.5 -35q79 -30 111.5 -69t32.5 -103v-54q4 -64 -36.5 -113.5t-104.5 -57.5z" />
    <glyph glyph-name="scedilla" unicode="&#x15f;" horiz-adv-x="330" 
d="M187 -5l-9 -42q10 3 16 3q26 0 43.5 -18t17.5 -46q0 -34 -23.5 -56.5t-59.5 -22.5q-33 0 -71 19l10 42q28 -17 53 -17q12 0 20 8.5t8 21.5q0 28 -26 28q-10 0 -25 -6l-14 20l15 67q-53 12 -85.5 51t-31.5 90h89q0 -23 15.5 -38t38.5 -15q22 0 37 15.5t15 38.5
q0 22 -11.5 34t-43.5 23l-19 7q-63 23 -85 50q-31 39 -31 89q0 59 40 100t97 41q56 0 95.5 -39.5t40.5 -97.5h-88q-1 22 -14 34.5t-33 12.5q-21 0 -34.5 -14t-13.5 -36q0 -21 11 -33t40 -22l31 -10q49 -17 74 -45q35 -43 35 -95q0 -54 -35 -94t-89 -48z" />
    <glyph glyph-name="Scaron" unicode="&#x160;" horiz-adv-x="387" 
d="M26 190h96v-24q0 -29 8 -44q18 -33 60 -33q40 0 60 31q9 14 9 47v46q1 38 -15 54t-77 39q-138 49 -134 170v30q0 70 47 118.5t114 48.5q68 0 114 -48.5t46 -118.5v-30h-95v30q0 33 -18 52.5t-48 19.5q-29 0 -47 -20t-18 -52v-30q0 -35 13.5 -49t68.5 -35
q79 -30 111.5 -69t32.5 -103v-54q0 -39 -6.5 -61t-25.5 -47q-49 -64 -131 -64q-88 0 -136 70q-29 41 -29 102v24zM71 837h86l36 -60l42 60h79l-82 -117h-82z" />
    <glyph glyph-name="scaron" unicode="&#x161;" horiz-adv-x="330" 
d="M23 137h89q0 -23 15.5 -38t38.5 -15q22 0 37 15.5t15 38.5q0 22 -11.5 34t-43.5 23l-19 7q-63 23 -85 50q-31 39 -31 89q0 59 40 100t97 41q56 0 95.5 -39.5t40.5 -97.5h-88q-1 22 -14 34.5t-33 12.5q-21 0 -34.5 -14t-13.5 -36q0 -21 11 -33t40 -22l31 -10
q49 -17 74 -45q35 -45 35 -95q0 -58 -42 -101t-99 -43q-38 0 -72.5 19.5t-53.5 50.5q-19 34 -19 74zM44 677h86l36 -60l42 60h79l-82 -117h-83z" />
    <glyph glyph-name="Tcommaaccent" unicode="&#x162;" horiz-adv-x="352" 
d="M223 578v-578h-95v578h-112v89h321v-89h-114zM218 -53v-95l-81 -71v166h81z" />
    <glyph glyph-name="tcommaaccent" unicode="&#x163;" horiz-adv-x="235" 
d="M147 401v-268q-1 -24 6.5 -33t30.5 -9h22v-91h-30q-56 -3 -91.5 30.5t-32.5 85.5v285h-47v75h47v145h95v-145h59v-75h-59zM160 -53v-95l-81 -71v166h81z" />
    <glyph glyph-name="Tcaron" unicode="&#x164;" horiz-adv-x="352" 
d="M223 578v-578h-95v578h-112v89h321v-89h-114zM54 837h85l37 -60l42 60h79l-82 -117h-83z" />
    <glyph glyph-name="tcaron" unicode="&#x165;" horiz-adv-x="289" 
d="M147 401v-268q-1 -24 6.5 -33t30.5 -9h22v-91h-30q-56 -3 -91.5 30.5t-32.5 85.5v285h-47v75h47v145h95v-145h59v-75h-59zM280 667v-96l-81 -71v167h81z" />
    <glyph glyph-name="Umacron" unicode="&#x16a;" horiz-adv-x="413" 
d="M361 667v-510q0 -50 -22 -87q-47 -76 -133 -76q-42 0 -79 21.5t-57 57.5q-19 37 -19 84v510h95v-510q0 -34 20 -53q16 -15 40 -15q28 0 44 18.5t16 49.5v510h95zM320 813v-77h-227v77h227z" />
    <glyph glyph-name="umacron" unicode="&#x16b;" horiz-adv-x="371" 
d="M328 476v-476h-95v48q-35 -54 -88 -54q-60 0 -90 53q-12 24 -12 71v358h95v-322q0 -30 6 -41q11 -24 41 -24q28 0 41 24q7 12 7 41v322h95zM299 665v-77h-227v77h227z" />
    <glyph glyph-name="Uring" unicode="&#x16e;" horiz-adv-x="413" 
d="M361 667v-510q0 -50 -22 -87q-47 -76 -133 -76q-42 0 -79 21.5t-57 57.5q-19 37 -19 84v510h95v-510q0 -34 20 -53q16 -15 40 -15q28 0 44 18.5t16 49.5v510h95zM206 863q34 0 58 -23.5t24 -58.5q0 -34 -24 -57.5t-58 -23.5t-58 24t-24 58t24 57.5t58 23.5zM207 809
q-12 0 -20 -8t-8 -19t8.5 -19t19.5 -8t19 8t8 19t-8 19t-19 8z" />
    <glyph glyph-name="uring" unicode="&#x16f;" horiz-adv-x="371" 
d="M328 476v-476h-95v48q-35 -54 -88 -54q-60 0 -90 53q-12 24 -12 71v358h95v-322q0 -30 6 -41q11 -24 41 -24q28 0 41 24q7 12 7 41v322h95zM185 719q35 0 58.5 -23.5t23.5 -58.5q0 -34 -24 -57.5t-57 -23.5q-34 0 -58 24t-24 58t23.5 57.5t57.5 23.5zM186 664
q-11 0 -19 -8t-8 -19t8 -19t19 -8t19 8t8 19t-8 19t-19 8z" />
    <glyph glyph-name="Uhungarumlaut" unicode="&#x170;" horiz-adv-x="413" 
d="M361 667v-510q0 -50 -22 -87q-47 -76 -133 -76q-42 0 -79 21.5t-57 57.5q-19 37 -19 84v510h95v-510q0 -34 20 -53q16 -15 40 -15q28 0 44 18.5t16 49.5v510h95zM148 837h88l-74 -117h-66zM268 837h88l-74 -117h-66z" />
    <glyph glyph-name="uhungarumlaut" unicode="&#x171;" horiz-adv-x="371" 
d="M328 476v-476h-95v48q-35 -54 -88 -54q-60 0 -90 53q-12 24 -12 71v358h95v-322q0 -30 6 -41q11 -24 41 -24q28 0 41 24q7 12 7 41v322h95zM147 680h89l-75 -117h-65zM267 680h89l-75 -117h-65z" />
    <glyph glyph-name="Uogonek" unicode="&#x172;" horiz-adv-x="413" 
d="M309 -101v-51q-19 -11 -43 -11q-37 0 -61 23t-24 58q0 45 40 76q-75 -1 -122 45t-46 119v509h95v-509q0 -36 20 -53q17 -15 40 -15q28 0 44 18.5t16 49.5v509h95v-509q-1 -48 -13.5 -73.5t-58.5 -69.5q-43 -45 -43 -86q0 -35 30 -35q13 0 31 5z" />
    <glyph glyph-name="uogonek" unicode="&#x173;" horiz-adv-x="371" 
d="M328 476v-476q-50 -42 -50 -85q0 -35 30 -35q12 0 32 5v-51q-19 -11 -44 -11q-37 0 -60.5 23.5t-23.5 60.5q0 61 60 93h-39v48q-35 -54 -88 -54q-60 0 -90 53q-12 24 -12 71v358h95v-322q0 -30 6 -41q11 -24 41 -24q28 0 41 24q7 12 7 41v322h95z" />
    <glyph glyph-name="Ydieresis" unicode="&#x178;" horiz-adv-x="343" 
d="M220 287v-287h-95v287l-129 380h100l77 -261l78 261h100zM141 811v-95h-94v95h94zM296 811v-95h-94v95h94z" />
    <glyph glyph-name="Zacute" unicode="&#x179;" horiz-adv-x="345" 
d="M318 95v-95h-286v85l179 493h-166v89h273v-76l-179 -496h179zM189 837h102l-74 -117h-79z" />
    <glyph glyph-name="zacute" unicode="&#x17a;" horiz-adv-x="305" 
d="M283 89v-89h-261v77l154 316h-143v83h250v-71l-154 -316h154zM169 680h102l-74 -117h-79z" />
    <glyph glyph-name="Zdotaccent" unicode="&#x17b;" horiz-adv-x="345" 
d="M318 95v-95h-286v85l179 493h-166v89h273v-76l-179 -496h179zM233 811v-95h-94v95h94z" />
    <glyph glyph-name="zdotaccent" unicode="&#x17c;" horiz-adv-x="305" 
d="M283 89v-89h-261v77l154 316h-143v83h250v-71l-154 -316h154zM213 667v-92h-94v92h94z" />
    <glyph glyph-name="Zcaron" unicode="&#x17d;" horiz-adv-x="345" 
d="M318 95v-95h-286v85l179 493h-166v89h273v-76l-179 -496h179zM64 837h85l37 -60l42 60h79l-82 -117h-83z" />
    <glyph glyph-name="zcaron" unicode="&#x17e;" horiz-adv-x="305" 
d="M283 89v-89h-261v77l154 316h-143v83h250v-71l-154 -316h154zM44 677h86l36 -60l43 60h79l-82 -117h-83z" />
    <glyph glyph-name="florin" unicode="&#x192;" 
d="M249 354l-64 -362q-26 -131 -156 -125h-33l16 88h35q36 0 42 37l64 362h-46l13 75h47l19 113q14 67 50.5 96.5t105.5 28.5h33l-15 -88h-36q-36 0 -42 -37l-20 -113h71l-13 -75h-71z" />
    <glyph glyph-name="uni01D3" unicode="&#x1d3;" horiz-adv-x="413" 
d="M361 667v-510q0 -50 -22 -87q-47 -76 -133 -76q-42 0 -79 21.5t-57 57.5q-19 37 -19 84v510h95v-510q0 -34 20 -53q16 -15 40 -15q28 0 44 18.5t16 49.5v510h95zM84 837h85l37 -60l42 60h79l-82 -117h-83z" />
    <glyph glyph-name="uni01D4" unicode="&#x1d4;" horiz-adv-x="371" 
d="M328 476v-476h-95v48q-35 -54 -88 -54q-60 0 -90 53q-12 24 -12 71v358h95v-322q0 -30 6 -41q11 -24 41 -24q28 0 41 24q7 12 7 41v322h95zM64 677h86l36 -60l42 60h79l-82 -117h-82z" />
    <glyph glyph-name="Scommaaccent" unicode="&#x218;" horiz-adv-x="387" 
d="M26 190h96v-24q0 -29 8 -44q18 -33 60 -33q40 0 60 31q9 14 9 47v46q1 38 -15 54t-77 39q-138 49 -134 170v30q0 70 47 118.5t114 48.5q68 0 114 -48.5t46 -118.5v-30h-95v30q0 33 -18 52.5t-48 19.5q-29 0 -47 -20t-18 -52v-30q0 -35 13.5 -49t68.5 -35
q79 -30 111.5 -69t32.5 -103v-54q0 -39 -6.5 -61t-25.5 -47q-49 -64 -131 -64q-88 0 -136 70q-29 41 -29 102v24zM235 -53v-95l-81 -71v166h81z" />
    <glyph glyph-name="scommaaccent" unicode="&#x219;" horiz-adv-x="330" 
d="M23 137h89q0 -23 15.5 -38t38.5 -15q22 0 37 15.5t15 38.5q0 22 -11.5 34t-43.5 23l-19 7q-63 23 -85 50q-31 39 -31 89q0 59 40 100t97 41q56 0 95.5 -39.5t40.5 -97.5h-88q-1 22 -14 34.5t-33 12.5q-21 0 -34.5 -14t-13.5 -36q0 -21 11 -33t40 -22l31 -10
q49 -17 74 -45q35 -45 35 -95q0 -58 -42 -101t-99 -43q-38 0 -72.5 19.5t-53.5 50.5q-19 34 -19 74zM207 -53v-95l-81 -71v166h81z" />
    <glyph glyph-name="uni021A" unicode="&#x21a;" horiz-adv-x="352" 
d="M223 578v-578h-95v578h-112v89h321v-89h-114zM218 -53v-95l-81 -71v166h81z" />
    <glyph glyph-name="uni021B" unicode="&#x21b;" horiz-adv-x="235" 
d="M147 401v-268q-1 -24 6.5 -33t30.5 -9h22v-91h-30q-56 -3 -91.5 30.5t-32.5 85.5v285h-47v75h47v145h95v-145h59v-75h-59zM160 -53v-95l-81 -71v166h81z" />
    <glyph glyph-name="afii57929" unicode="&#x2bc;" horiz-adv-x="169" 
d="M121 667v-93l-71 -36v129h71z" />
    <glyph glyph-name="circumflex" unicode="&#x2c6;" horiz-adv-x="500" 
d="M371 560h-86l-36 60l-42 -60h-79l82 117h83z" />
    <glyph glyph-name="caron" unicode="&#x2c7;" horiz-adv-x="500" 
d="M128 677h86l36 -60l42 60h79l-82 -117h-82z" />
    <glyph glyph-name="uni02C9" unicode="&#x2c9;" horiz-adv-x="500" 
d="M364 665v-77h-227v77h227z" />
    <glyph glyph-name="breve" unicode="&#x2d8;" horiz-adv-x="500" 
d="M125 681h72q17 -42 54 -42q35 0 52 42h72q-11 -53 -44 -82.5t-81 -29.5q-47 0 -80 29.5t-45 82.5z" />
    <glyph glyph-name="dotaccent" unicode="&#x2d9;" horiz-adv-x="500" 
d="M297 667v-92h-94v92h94z" />
    <glyph glyph-name="ring" unicode="&#x2da;" horiz-adv-x="500" 
d="M249 719q35 0 58.5 -23.5t23.5 -58.5q0 -34 -24 -57.5t-57 -23.5q-34 0 -58 24t-24 58t23.5 57.5t57.5 23.5zM250 664q-11 0 -19 -8t-8 -19t8 -19t19 -8t19 8t8 19t-8 19t-19 8z" />
    <glyph glyph-name="ogonek" unicode="&#x2db;" horiz-adv-x="500" 
d="M246 0h56q-49 -39 -49 -85q0 -35 30 -35q11 0 31 5v-51q-19 -11 -44 -11q-37 0 -60.5 23.5t-23.5 60.5q0 60 60 93z" />
    <glyph glyph-name="tilde" unicode="&#x2dc;" horiz-adv-x="500" 
d="M315 670h61q-1 -37 -10 -57q-20 -41 -65 -41q-18 0 -47 10q-31 10 -41 10q-18 0 -23 -23h-66q4 100 76 100q21 0 73 -18q14 -4 20 -4q19 0 22 23z" />
    <glyph glyph-name="hungarumlaut" unicode="&#x2dd;" horiz-adv-x="500" 
d="M212 680h88l-74 -117h-66zM332 680h88l-74 -117h-66z" />
    <glyph glyph-name="uni2011" unicode="&#x2011;" horiz-adv-x="387" 
d="M336 310v-95h-285v95h285z" />
    <glyph glyph-name="figuredash" unicode="&#x2012;" horiz-adv-x="523" 
d="M473 310v-95h-422v95h422z" />
    <glyph glyph-name="endash" unicode="&#x2013;" horiz-adv-x="523" 
d="M473 310v-95h-422v95h422z" />
    <glyph glyph-name="emdash" unicode="&#x2014;" horiz-adv-x="570" 
d="M520 310v-95h-469v95h469z" />
    <glyph glyph-name="afii00208" unicode="&#x2015;" horiz-adv-x="570" 
d="M520 310v-95h-469v95h469z" />
    <glyph glyph-name="quoteleft" unicode="&#x2018;" horiz-adv-x="169" 
d="M48 544v93l71 37v-130h-71z" />
    <glyph glyph-name="quoteright" unicode="&#x2019;" horiz-adv-x="169" 
d="M121 667v-93l-71 -36v129h71z" />
    <glyph glyph-name="quotesinglbase" unicode="&#x201a;" horiz-adv-x="169" 
d="M121 93v-93l-71 -36v129h71z" />
    <glyph glyph-name="quotedblleft" unicode="&#x201c;" horiz-adv-x="288" 
d="M169 544v93l71 37v-130h-71zM50 544v93l71 37v-130h-71z" />
    <glyph glyph-name="quotedblright" unicode="&#x201d;" horiz-adv-x="288" 
d="M121 667v-93l-71 -36v129h71zM240 667v-93l-71 -36v129h71z" />
    <glyph glyph-name="quotedblbase" unicode="&#x201e;" horiz-adv-x="286" 
d="M120 93v-93l-71 -36v129h71zM239 93v-93l-71 -36v129h71z" />
    <glyph glyph-name="dagger" unicode="&#x2020;" 
d="M240 530h117v-89h-117v-508h-95v508h-117v89h117v203h95v-203z" />
    <glyph glyph-name="daggerdbl" unicode="&#x2021;" 
d="M240 530h117v-89h-117v-202h117v-89h-117v-217h-95v217h-117v89h117v202h-117v89h117v203h95v-203z" />
    <glyph glyph-name="bullet" unicode="&#x2022;" horiz-adv-x="667" 
d="M335 479q56 0 96 -41t40 -98q0 -58 -40 -99t-97 -41t-97.5 40.5t-40.5 98.5q0 59 40 99.5t99 40.5z" />
    <glyph glyph-name="ellipsis" unicode="&#x2026;" horiz-adv-x="574" 
d="M143 95v-95h-95v95h95zM334 95v-95h-95v95h95zM526 95v-95h-95v95h95z" />
    <glyph glyph-name="perthousand" unicode="&#x2030;" horiz-adv-x="640" 
d="M86 548v50q0 31 21 53t51 22t51 -22t21 -53v-50q0 -25 -9 -38q-19 -34 -62 -34q-32 0 -52.5 20t-20.5 52zM134 598v-45q0 -29 24 -29t24 29v46q0 26 -24 26t-24 -27zM372 667l-223 -667h-63l226 667h60zM229 65v45q0 31 21 53t51 22t51 -22t21 -53v-45q0 -23 -8 -38
q-21 -33 -64 -33q-31 0 -51.5 20t-20.5 51zM277 110v-45q0 -29 24 -29t24 29v45q0 27 -24 27t-24 -27zM411 65v45q0 31 21 53t50 22q30 0 51 -22t21 -53v-45q0 -23 -8 -38q-21 -33 -63 -33q-31 0 -51.5 20.5t-20.5 50.5zM459 110v-45q0 -29 23 -29q24 0 24 29v45
q0 27 -24 27q-23 0 -23 -27z" />
    <glyph glyph-name="guilsinglleft" unicode="&#x2039;" horiz-adv-x="246" 
d="M112 288l95 -95v-96l-190 191l190 190v-94z" />
    <glyph glyph-name="guilsinglright" unicode="&#x203a;" horiz-adv-x="248" 
d="M142 288l-95 96v94l190 -190l-190 -191v96z" />
    <glyph glyph-name="uni203E" unicode="&#x203e;" horiz-adv-x="500" 
d="M0 806h500v-86h-500v86z" />
    <glyph glyph-name="fraction" unicode="&#x2044;" horiz-adv-x="117" 
d="M206 667l-226 -667h-69l226 667h69z" />
    <glyph glyph-name="franc" unicode="&#x20a3;" horiz-adv-x="514" 
d="M147 288v-288h-95v667h284v-89h-189v-201h106v-89h-106zM393 383v-51q14 24 42.5 40.5t60.5 18.5v-100q-15 3 -19 3q-29 0 -54 -23q-30 -30 -30 -85v-186h-95v383h95z" />
    <glyph glyph-name="peseta" unicode="&#x20a7;" horiz-adv-x="780" 
d="M147 263v-263h-95v667h122q60 -1 104 -41.5t49 -101.5v-96q4 -72 -44.5 -120.5t-119.5 -44.5h-16zM147 353h16q37 -1 57.5 19t17.5 56v86q2 26 -18.5 45.5t-48.5 18.5h-24v-225zM457 221v-88q-1 -24 6.5 -33t30.5 -9h22v-91h-30q-55 -3 -91 30.5t-33 85.5v105h-47v75h47
v111h95v-111h59v-75h-59zM548 91h86q0 -21 26 -21q18 0 18 17q0 12 -19 19l-12 4q-28 9 -40 14q-26 11 -41 34t-15 50q0 39 32 65.5t79 26.5t78.5 -26t33.5 -66h-93q-1 18 -19 18q-7 0 -12.5 -4.5t-5.5 -10.5q0 -7 4 -9.5t19 -7.5l21 -7q90 -27 90 -98q0 -39 -33.5 -66
t-81.5 -27q-64 0 -100 44q-15 19 -15 51z" />
    <glyph glyph-name="Euro" unicode="&#x20ac;" horiz-adv-x="471" 
d="M207 397h169l-18 -40h-151v-40h134l-17 -40h-117v-110q0 -30 2.5 -39t13.5 -20q17 -18 42 -18q36 0 53 29q8 13 8 48v23h95v-23q0 -60 -21 -97q-20 -34 -56.5 -55t-76.5 -21t-77 20.5t-57 54.5q-21 37 -21 98v110h-63l17 40h46v40h-63l17 40h46v114q0 70 43.5 116
t110.5 46q66 0 110.5 -46.5t44.5 -115.5v-35h-95v35q0 31 -16 48.5t-44 17.5q-27 0 -43 -18t-16 -48v-114z" />
    <glyph glyph-name="trademark" unicode="&#x2122;" horiz-adv-x="601" 
d="M162 602v-335h-75v335h-73v65h222v-65h-74zM564 667v-400h-75v205l-51 -135h-40l-50 135v-205h-75v400h68l78 -194l76 194h69z" />
    <glyph glyph-name="uni2126" unicode="&#x2126;" horiz-adv-x="667" 
d="M28 0v85h169q-171 101 -171 279q0 134 88.5 226.5t217.5 92.5q132 0 220.5 -91.5t88.5 -227.5q0 -180 -171 -279h169v-85h-263v79q166 92 166 269q0 105 -60 176.5t-147 71.5q-90 0 -150 -71t-60 -177q0 -178 166 -269v-79h-263z" />
    <glyph glyph-name="partialdiff" unicode="&#x2202;" horiz-adv-x="500" 
d="M79 590l11 78q89 -12 148.5 -36.5t108.5 -68.5q126 -117 126 -315q0 -112 -53 -179q-64 -81 -174 -81q-92 0 -155.5 66t-63.5 163q0 92 60.5 154t150.5 62q59 0 94 -27q4 -3 42 -39q-1 3 -2 5.5t-2 3.5v2q-24 61 -49.5 92.5t-79.5 65.5q-73 42 -162 54zM256 359
q-59 0 -99 -42t-40 -104q0 -61 39.5 -103.5t95.5 -42.5t93.5 43t37.5 107q0 61 -36 101.5t-91 40.5z" />
    <glyph glyph-name="emptyset" unicode="&#x2205;" horiz-adv-x="618" 
d="M496 655l-53 -105q109 -75 109 -203q0 -101 -71 -172t-172 -71q-43 0 -84 15l-53 -106l-49 25l53 106q-52 35 -80.5 88.5t-28.5 114.5q0 101 71 171.5t172 70.5q43 0 85 -15l53 106zM417 499l-166 -330q33 -9 58 -9q78 0 132.5 54.5t54.5 132.5q0 95 -79 152zM202 194
l167 330q-28 9 -59 9q-78 0 -132.5 -54.5t-54.5 -131.5q0 -94 79 -153z" />
    <glyph glyph-name="Delta" unicode="&#x2206;" horiz-adv-x="631" 
d="M7 0l257 667h101l259 -667h-617zM133 85h363l-180 477z" />
    <glyph glyph-name="product" unicode="&#x220f;" horiz-adv-x="667" 
d="M24 750h618v-79h-73v-842h73v-79h-234v79h73v842h-295v-842h71v-79h-233v79h74v842h-74v79z" />
    <glyph glyph-name="summation" unicode="&#x2211;" horiz-adv-x="667" 
d="M605 750v-237h-89l-10 146h-363l247 -391l-246 -428h371l6 149h93v-239h-580v104l240 414l-240 379v103h571z" />
    <glyph glyph-name="minus" unicode="&#x2212;" 
d="M357 358v-86h-329v86h329z" />
    <glyph glyph-name="uni2215" unicode="&#x2215;" horiz-adv-x="117" 
d="M206 667l-226 -667h-69l226 667h69z" />
    <glyph glyph-name="uni2219" unicode="&#x2219;" horiz-adv-x="191" 
d="M143 305v-95h-95v95h95z" />
    <glyph glyph-name="radical" unicode="&#x221a;" horiz-adv-x="667" 
d="M667 827v-82h-185l-212 -745h-110l-77 281h-83v82h140l38 -129q5 -18 10 -45l16 -77l3 -16h5l4 21l31 128q11 44 54 196l109 386h257z" />
    <glyph glyph-name="infinity" unicode="&#x221e;" horiz-adv-x="667" 
d="M334 293q-44 -59 -80.5 -82.5t-85.5 -23.5q-66 0 -108 43.5t-42 111.5q0 66 42 108.5t108 42.5q88 0 164 -106q74 106 166 106q66 0 108 -43t42 -111q0 -67 -42 -109.5t-108 -42.5q-47 0 -85.5 25t-78.5 81zM368 340q31 -48 59.5 -69t62.5 -21q37 0 61.5 25.5t24.5 64.5
t-24.5 64.5t-62.5 25.5q-33 0 -61 -20.5t-60 -69.5zM298 339q-32 49 -60.5 70t-62.5 21q-38 0 -61.5 -25.5t-23.5 -65.5q0 -39 24.5 -64t62.5 -25q34 0 60.5 19.5t60.5 69.5z" />
    <glyph glyph-name="integral" unicode="&#x222b;" horiz-adv-x="500" 
d="M81 -239l19 92q21 -10 40 -10q39 0 51 30q7 16 7 100v538q0 112 9 147q11 42 49.5 67t92.5 25q23 0 71 -10l-19 -92q-24 9 -42 9q-35 0 -48 -26q-8 -16 -8 -73v-593q0 -80 -6 -109.5t-28 -54.5q-44 -50 -138 -50q-16 0 -39 7q-7 2 -11 3z" />
    <glyph glyph-name="approxequal" unicode="&#x2248;" horiz-adv-x="500" 
d="M63 348l-53 36q29 64 62.5 92.5t77.5 28.5q36 0 111 -37q65 -32 93 -32q25 0 44 15t40 50l52 -36q-30 -65 -62.5 -93.5t-76.5 -28.5q-31 0 -109 37q-69 32 -96 32q-44 0 -83 -64zM63 162l-53 36q29 64 62.5 92.5t77.5 28.5q36 0 111 -36q65 -32 93 -32q25 0 43.5 14.5
t40.5 49.5l52 -37q-30 -65 -62.5 -93t-76.5 -28q-31 0 -109 37q-68 32 -96 32q-24 0 -42.5 -14.5t-40.5 -49.5z" />
    <glyph glyph-name="notequal" unicode="&#x2260;" 
d="M291 425h66v-86h-106l-22 -48h128v-86h-168l-41 -87l-78 36l24 51h-66v86h106l22 48h-128v86h168l41 87l78 -36z" />
    <glyph glyph-name="lessequal" unicode="&#x2264;" horiz-adv-x="500" 
d="M466 612v-97l-320 -119l320 -119v-97l-433 172v88zM466 152v-91h-433v91h433z" />
    <glyph glyph-name="greaterequal" unicode="&#x2265;" horiz-adv-x="500" 
d="M33 612l433 -172v-88l-433 -172v97l320 119l-320 119v97zM33 152h433v-91h-433v91z" />
    <glyph glyph-name="lozenge" unicode="&#x25ca;" horiz-adv-x="667" 
d="M334 693l259 -360l-259 -359l-260 359zM334 604l-197 -271l197 -270l197 270z" />
    </font>
</defs>
</svg>
